G04 #@! TF.GenerationSoftware,KiCad,Pcbnew,(5.1.5)-3*
G04 #@! TF.CreationDate,2020-03-05T02:26:09+05:30*
G04 #@! TF.ProjectId,Pyrolight,5079726f-6c69-4676-9874-2e6b69636164,V1.0*
G04 #@! TF.SameCoordinates,Original*
G04 #@! TF.FileFunction,Legend,Bot*
G04 #@! TF.FilePolarity,Positive*
%FSLAX46Y46*%
G04 Gerber Fmt 4.6, Leading zero omitted, Abs format (unit mm)*
G04 Created by KiCad (PCBNEW (5.1.5)-3) date 2020-03-05 02:26:09*
%MOMM*%
%LPD*%
G04 APERTURE LIST*
%ADD10C,0.200000*%
G04 APERTURE END LIST*
D10*
X155382380Y-91281904D02*
X154382380Y-91281904D01*
X154382380Y-91662857D01*
X154430000Y-91758095D01*
X154477619Y-91805714D01*
X154572857Y-91853333D01*
X154715714Y-91853333D01*
X154810952Y-91805714D01*
X154858571Y-91758095D01*
X154906190Y-91662857D01*
X154906190Y-91281904D01*
X154715714Y-92186666D02*
X155382380Y-92424761D01*
X154715714Y-92662857D02*
X155382380Y-92424761D01*
X155620476Y-92329523D01*
X155668095Y-92281904D01*
X155715714Y-92186666D01*
X155382380Y-93043809D02*
X154715714Y-93043809D01*
X154906190Y-93043809D02*
X154810952Y-93091428D01*
X154763333Y-93139047D01*
X154715714Y-93234285D01*
X154715714Y-93329523D01*
X155382380Y-93805714D02*
X155334761Y-93710476D01*
X155287142Y-93662857D01*
X155191904Y-93615238D01*
X154906190Y-93615238D01*
X154810952Y-93662857D01*
X154763333Y-93710476D01*
X154715714Y-93805714D01*
X154715714Y-93948571D01*
X154763333Y-94043809D01*
X154810952Y-94091428D01*
X154906190Y-94139047D01*
X155191904Y-94139047D01*
X155287142Y-94091428D01*
X155334761Y-94043809D01*
X155382380Y-93948571D01*
X155382380Y-93805714D01*
X155382380Y-95043809D02*
X155382380Y-94567619D01*
X154382380Y-94567619D01*
X155382380Y-95377142D02*
X154715714Y-95377142D01*
X154382380Y-95377142D02*
X154430000Y-95329523D01*
X154477619Y-95377142D01*
X154430000Y-95424761D01*
X154382380Y-95377142D01*
X154477619Y-95377142D01*
X154715714Y-96281904D02*
X155525238Y-96281904D01*
X155620476Y-96234285D01*
X155668095Y-96186666D01*
X155715714Y-96091428D01*
X155715714Y-95948571D01*
X155668095Y-95853333D01*
X155334761Y-96281904D02*
X155382380Y-96186666D01*
X155382380Y-95996190D01*
X155334761Y-95900952D01*
X155287142Y-95853333D01*
X155191904Y-95805714D01*
X154906190Y-95805714D01*
X154810952Y-95853333D01*
X154763333Y-95900952D01*
X154715714Y-95996190D01*
X154715714Y-96186666D01*
X154763333Y-96281904D01*
X155382380Y-96758095D02*
X154382380Y-96758095D01*
X155382380Y-97186666D02*
X154858571Y-97186666D01*
X154763333Y-97139047D01*
X154715714Y-97043809D01*
X154715714Y-96900952D01*
X154763333Y-96805714D01*
X154810952Y-96758095D01*
X154715714Y-97520000D02*
X154715714Y-97900952D01*
X154382380Y-97662857D02*
X155239523Y-97662857D01*
X155334761Y-97710476D01*
X155382380Y-97805714D01*
X155382380Y-97900952D01*
X154382380Y-98853333D02*
X155382380Y-99186666D01*
X154382380Y-99520000D01*
X155382380Y-100377142D02*
X155382380Y-99805714D01*
X155382380Y-100091428D02*
X154382380Y-100091428D01*
X154525238Y-99996190D01*
X154620476Y-99900952D01*
X154668095Y-99805714D01*
X155287142Y-100805714D02*
X155334761Y-100853333D01*
X155382380Y-100805714D01*
X155334761Y-100758095D01*
X155287142Y-100805714D01*
X155382380Y-100805714D01*
X154382380Y-101472380D02*
X154382380Y-101567619D01*
X154430000Y-101662857D01*
X154477619Y-101710476D01*
X154572857Y-101758095D01*
X154763333Y-101805714D01*
X155001428Y-101805714D01*
X155191904Y-101758095D01*
X155287142Y-101710476D01*
X155334761Y-101662857D01*
X155382380Y-101567619D01*
X155382380Y-101472380D01*
X155334761Y-101377142D01*
X155287142Y-101329523D01*
X155191904Y-101281904D01*
X155001428Y-101234285D01*
X154763333Y-101234285D01*
X154572857Y-101281904D01*
X154477619Y-101329523D01*
X154430000Y-101377142D01*
X154382380Y-101472380D01*
X157082380Y-91805714D02*
X156082380Y-91805714D01*
X156082380Y-92043809D01*
X156130000Y-92186666D01*
X156225238Y-92281904D01*
X156320476Y-92329523D01*
X156510952Y-92377142D01*
X156653809Y-92377142D01*
X156844285Y-92329523D01*
X156939523Y-92281904D01*
X157034761Y-92186666D01*
X157082380Y-92043809D01*
X157082380Y-91805714D01*
X157034761Y-93186666D02*
X157082380Y-93091428D01*
X157082380Y-92900952D01*
X157034761Y-92805714D01*
X156939523Y-92758095D01*
X156558571Y-92758095D01*
X156463333Y-92805714D01*
X156415714Y-92900952D01*
X156415714Y-93091428D01*
X156463333Y-93186666D01*
X156558571Y-93234285D01*
X156653809Y-93234285D01*
X156749047Y-92758095D01*
X157034761Y-93615238D02*
X157082380Y-93710476D01*
X157082380Y-93900952D01*
X157034761Y-93996190D01*
X156939523Y-94043809D01*
X156891904Y-94043809D01*
X156796666Y-93996190D01*
X156749047Y-93900952D01*
X156749047Y-93758095D01*
X156701428Y-93662857D01*
X156606190Y-93615238D01*
X156558571Y-93615238D01*
X156463333Y-93662857D01*
X156415714Y-93758095D01*
X156415714Y-93900952D01*
X156463333Y-93996190D01*
X157082380Y-94472380D02*
X156415714Y-94472380D01*
X156082380Y-94472380D02*
X156130000Y-94424761D01*
X156177619Y-94472380D01*
X156130000Y-94520000D01*
X156082380Y-94472380D01*
X156177619Y-94472380D01*
X156415714Y-95377142D02*
X157225238Y-95377142D01*
X157320476Y-95329523D01*
X157368095Y-95281904D01*
X157415714Y-95186666D01*
X157415714Y-95043809D01*
X157368095Y-94948571D01*
X157034761Y-95377142D02*
X157082380Y-95281904D01*
X157082380Y-95091428D01*
X157034761Y-94996190D01*
X156987142Y-94948571D01*
X156891904Y-94900952D01*
X156606190Y-94900952D01*
X156510952Y-94948571D01*
X156463333Y-94996190D01*
X156415714Y-95091428D01*
X156415714Y-95281904D01*
X156463333Y-95377142D01*
X156415714Y-95853333D02*
X157082380Y-95853333D01*
X156510952Y-95853333D02*
X156463333Y-95900952D01*
X156415714Y-95996190D01*
X156415714Y-96139047D01*
X156463333Y-96234285D01*
X156558571Y-96281904D01*
X157082380Y-96281904D01*
X157034761Y-97139047D02*
X157082380Y-97043809D01*
X157082380Y-96853333D01*
X157034761Y-96758095D01*
X156939523Y-96710476D01*
X156558571Y-96710476D01*
X156463333Y-96758095D01*
X156415714Y-96853333D01*
X156415714Y-97043809D01*
X156463333Y-97139047D01*
X156558571Y-97186666D01*
X156653809Y-97186666D01*
X156749047Y-96710476D01*
X157082380Y-98043809D02*
X156082380Y-98043809D01*
X157034761Y-98043809D02*
X157082380Y-97948571D01*
X157082380Y-97758095D01*
X157034761Y-97662857D01*
X156987142Y-97615238D01*
X156891904Y-97567619D01*
X156606190Y-97567619D01*
X156510952Y-97615238D01*
X156463333Y-97662857D01*
X156415714Y-97758095D01*
X156415714Y-97948571D01*
X156463333Y-98043809D01*
X157082380Y-99281904D02*
X156082380Y-99281904D01*
X156463333Y-99281904D02*
X156415714Y-99377142D01*
X156415714Y-99567619D01*
X156463333Y-99662857D01*
X156510952Y-99710476D01*
X156606190Y-99758095D01*
X156891904Y-99758095D01*
X156987142Y-99710476D01*
X157034761Y-99662857D01*
X157082380Y-99567619D01*
X157082380Y-99377142D01*
X157034761Y-99281904D01*
X156415714Y-100091428D02*
X157082380Y-100329523D01*
X156415714Y-100567619D02*
X157082380Y-100329523D01*
X157320476Y-100234285D01*
X157368095Y-100186666D01*
X157415714Y-100091428D01*
X157782380Y-89734285D02*
X158782380Y-90067619D01*
X157782380Y-90400952D01*
X158782380Y-90734285D02*
X158115714Y-90734285D01*
X157782380Y-90734285D02*
X157830000Y-90686666D01*
X157877619Y-90734285D01*
X157830000Y-90781904D01*
X157782380Y-90734285D01*
X157877619Y-90734285D01*
X158734761Y-91162857D02*
X158782380Y-91258095D01*
X158782380Y-91448571D01*
X158734761Y-91543809D01*
X158639523Y-91591428D01*
X158591904Y-91591428D01*
X158496666Y-91543809D01*
X158449047Y-91448571D01*
X158449047Y-91305714D01*
X158401428Y-91210476D01*
X158306190Y-91162857D01*
X158258571Y-91162857D01*
X158163333Y-91210476D01*
X158115714Y-91305714D01*
X158115714Y-91448571D01*
X158163333Y-91543809D01*
X158782380Y-92020000D02*
X157782380Y-92020000D01*
X158782380Y-92448571D02*
X158258571Y-92448571D01*
X158163333Y-92400952D01*
X158115714Y-92305714D01*
X158115714Y-92162857D01*
X158163333Y-92067619D01*
X158210952Y-92020000D01*
X158115714Y-92829523D02*
X158782380Y-93020000D01*
X158306190Y-93210476D01*
X158782380Y-93400952D01*
X158115714Y-93591428D01*
X158782380Y-94400952D02*
X158258571Y-94400952D01*
X158163333Y-94353333D01*
X158115714Y-94258095D01*
X158115714Y-94067619D01*
X158163333Y-93972380D01*
X158734761Y-94400952D02*
X158782380Y-94305714D01*
X158782380Y-94067619D01*
X158734761Y-93972380D01*
X158639523Y-93924761D01*
X158544285Y-93924761D01*
X158449047Y-93972380D01*
X158401428Y-94067619D01*
X158401428Y-94305714D01*
X158353809Y-94400952D01*
X158734761Y-94829523D02*
X158782380Y-94924761D01*
X158782380Y-95115238D01*
X158734761Y-95210476D01*
X158639523Y-95258095D01*
X158591904Y-95258095D01*
X158496666Y-95210476D01*
X158449047Y-95115238D01*
X158449047Y-94972380D01*
X158401428Y-94877142D01*
X158306190Y-94829523D01*
X158258571Y-94829523D01*
X158163333Y-94877142D01*
X158115714Y-94972380D01*
X158115714Y-95115238D01*
X158163333Y-95210476D01*
X158782380Y-96448571D02*
X157782380Y-96448571D01*
X158782380Y-97020000D01*
X157782380Y-97020000D01*
X158782380Y-97924761D02*
X158258571Y-97924761D01*
X158163333Y-97877142D01*
X158115714Y-97781904D01*
X158115714Y-97591428D01*
X158163333Y-97496190D01*
X158734761Y-97924761D02*
X158782380Y-97829523D01*
X158782380Y-97591428D01*
X158734761Y-97496190D01*
X158639523Y-97448571D01*
X158544285Y-97448571D01*
X158449047Y-97496190D01*
X158401428Y-97591428D01*
X158401428Y-97829523D01*
X158353809Y-97924761D01*
X158115714Y-98305714D02*
X158782380Y-98543809D01*
X158115714Y-98781904D01*
X158782380Y-99591428D02*
X158258571Y-99591428D01*
X158163333Y-99543809D01*
X158115714Y-99448571D01*
X158115714Y-99258095D01*
X158163333Y-99162857D01*
X158734761Y-99591428D02*
X158782380Y-99496190D01*
X158782380Y-99258095D01*
X158734761Y-99162857D01*
X158639523Y-99115238D01*
X158544285Y-99115238D01*
X158449047Y-99162857D01*
X158401428Y-99258095D01*
X158401428Y-99496190D01*
X158353809Y-99591428D01*
X158782380Y-100496190D02*
X157782380Y-100496190D01*
X158734761Y-100496190D02*
X158782380Y-100400952D01*
X158782380Y-100210476D01*
X158734761Y-100115238D01*
X158687142Y-100067619D01*
X158591904Y-100020000D01*
X158306190Y-100020000D01*
X158210952Y-100067619D01*
X158163333Y-100115238D01*
X158115714Y-100210476D01*
X158115714Y-100400952D01*
X158163333Y-100496190D01*
X158782380Y-101400952D02*
X158258571Y-101400952D01*
X158163333Y-101353333D01*
X158115714Y-101258095D01*
X158115714Y-101067619D01*
X158163333Y-100972380D01*
X158734761Y-101400952D02*
X158782380Y-101305714D01*
X158782380Y-101067619D01*
X158734761Y-100972380D01*
X158639523Y-100924761D01*
X158544285Y-100924761D01*
X158449047Y-100972380D01*
X158401428Y-101067619D01*
X158401428Y-101305714D01*
X158353809Y-101400952D01*
X158258571Y-102972380D02*
X158306190Y-103115238D01*
X158353809Y-103162857D01*
X158449047Y-103210476D01*
X158591904Y-103210476D01*
X158687142Y-103162857D01*
X158734761Y-103115238D01*
X158782380Y-103020000D01*
X158782380Y-102639047D01*
X157782380Y-102639047D01*
X157782380Y-102972380D01*
X157830000Y-103067619D01*
X157877619Y-103115238D01*
X157972857Y-103162857D01*
X158068095Y-103162857D01*
X158163333Y-103115238D01*
X158210952Y-103067619D01*
X158258571Y-102972380D01*
X158258571Y-102639047D01*
X160482380Y-84591428D02*
X159482380Y-84591428D01*
X160482380Y-85020000D02*
X159958571Y-85020000D01*
X159863333Y-84972380D01*
X159815714Y-84877142D01*
X159815714Y-84734285D01*
X159863333Y-84639047D01*
X159910952Y-84591428D01*
X159815714Y-85353333D02*
X159815714Y-85734285D01*
X159482380Y-85496190D02*
X160339523Y-85496190D01*
X160434761Y-85543809D01*
X160482380Y-85639047D01*
X160482380Y-85734285D01*
X159815714Y-85924761D02*
X159815714Y-86305714D01*
X159482380Y-86067619D02*
X160339523Y-86067619D01*
X160434761Y-86115238D01*
X160482380Y-86210476D01*
X160482380Y-86305714D01*
X159815714Y-86639047D02*
X160815714Y-86639047D01*
X159863333Y-86639047D02*
X159815714Y-86734285D01*
X159815714Y-86924761D01*
X159863333Y-87020000D01*
X159910952Y-87067619D01*
X160006190Y-87115238D01*
X160291904Y-87115238D01*
X160387142Y-87067619D01*
X160434761Y-87020000D01*
X160482380Y-86924761D01*
X160482380Y-86734285D01*
X160434761Y-86639047D01*
X160434761Y-87496190D02*
X160482380Y-87591428D01*
X160482380Y-87781904D01*
X160434761Y-87877142D01*
X160339523Y-87924761D01*
X160291904Y-87924761D01*
X160196666Y-87877142D01*
X160149047Y-87781904D01*
X160149047Y-87639047D01*
X160101428Y-87543809D01*
X160006190Y-87496190D01*
X159958571Y-87496190D01*
X159863333Y-87543809D01*
X159815714Y-87639047D01*
X159815714Y-87781904D01*
X159863333Y-87877142D01*
X160387142Y-88353333D02*
X160434761Y-88400952D01*
X160482380Y-88353333D01*
X160434761Y-88305714D01*
X160387142Y-88353333D01*
X160482380Y-88353333D01*
X159863333Y-88353333D02*
X159910952Y-88400952D01*
X159958571Y-88353333D01*
X159910952Y-88305714D01*
X159863333Y-88353333D01*
X159958571Y-88353333D01*
X159434761Y-89543809D02*
X160720476Y-88686666D01*
X159434761Y-90591428D02*
X160720476Y-89734285D01*
X159815714Y-90829523D02*
X160482380Y-91067619D01*
X159815714Y-91305714D01*
X160482380Y-91686666D02*
X159815714Y-91686666D01*
X159482380Y-91686666D02*
X159530000Y-91639047D01*
X159577619Y-91686666D01*
X159530000Y-91734285D01*
X159482380Y-91686666D01*
X159577619Y-91686666D01*
X160434761Y-92115238D02*
X160482380Y-92210476D01*
X160482380Y-92400952D01*
X160434761Y-92496190D01*
X160339523Y-92543809D01*
X160291904Y-92543809D01*
X160196666Y-92496190D01*
X160149047Y-92400952D01*
X160149047Y-92258095D01*
X160101428Y-92162857D01*
X160006190Y-92115238D01*
X159958571Y-92115238D01*
X159863333Y-92162857D01*
X159815714Y-92258095D01*
X159815714Y-92400952D01*
X159863333Y-92496190D01*
X160482380Y-92972380D02*
X159482380Y-92972380D01*
X160482380Y-93400952D02*
X159958571Y-93400952D01*
X159863333Y-93353333D01*
X159815714Y-93258095D01*
X159815714Y-93115238D01*
X159863333Y-93020000D01*
X159910952Y-92972380D01*
X159815714Y-93781904D02*
X160482380Y-93972380D01*
X160006190Y-94162857D01*
X160482380Y-94353333D01*
X159815714Y-94543809D01*
X160482380Y-95353333D02*
X159958571Y-95353333D01*
X159863333Y-95305714D01*
X159815714Y-95210476D01*
X159815714Y-95020000D01*
X159863333Y-94924761D01*
X160434761Y-95353333D02*
X160482380Y-95258095D01*
X160482380Y-95020000D01*
X160434761Y-94924761D01*
X160339523Y-94877142D01*
X160244285Y-94877142D01*
X160149047Y-94924761D01*
X160101428Y-95020000D01*
X160101428Y-95258095D01*
X160053809Y-95353333D01*
X160434761Y-95781904D02*
X160482380Y-95877142D01*
X160482380Y-96067619D01*
X160434761Y-96162857D01*
X160339523Y-96210476D01*
X160291904Y-96210476D01*
X160196666Y-96162857D01*
X160149047Y-96067619D01*
X160149047Y-95924761D01*
X160101428Y-95829523D01*
X160006190Y-95781904D01*
X159958571Y-95781904D01*
X159863333Y-95829523D01*
X159815714Y-95924761D01*
X159815714Y-96067619D01*
X159863333Y-96162857D01*
X159815714Y-96639047D02*
X160482380Y-96639047D01*
X159910952Y-96639047D02*
X159863333Y-96686666D01*
X159815714Y-96781904D01*
X159815714Y-96924761D01*
X159863333Y-97020000D01*
X159958571Y-97067619D01*
X160482380Y-97067619D01*
X160482380Y-97972380D02*
X159958571Y-97972380D01*
X159863333Y-97924761D01*
X159815714Y-97829523D01*
X159815714Y-97639047D01*
X159863333Y-97543809D01*
X160434761Y-97972380D02*
X160482380Y-97877142D01*
X160482380Y-97639047D01*
X160434761Y-97543809D01*
X160339523Y-97496190D01*
X160244285Y-97496190D01*
X160149047Y-97543809D01*
X160101428Y-97639047D01*
X160101428Y-97877142D01*
X160053809Y-97972380D01*
X159815714Y-98353333D02*
X160482380Y-98591428D01*
X159815714Y-98829523D01*
X160482380Y-99639047D02*
X159958571Y-99639047D01*
X159863333Y-99591428D01*
X159815714Y-99496190D01*
X159815714Y-99305714D01*
X159863333Y-99210476D01*
X160434761Y-99639047D02*
X160482380Y-99543809D01*
X160482380Y-99305714D01*
X160434761Y-99210476D01*
X160339523Y-99162857D01*
X160244285Y-99162857D01*
X160149047Y-99210476D01*
X160101428Y-99305714D01*
X160101428Y-99543809D01*
X160053809Y-99639047D01*
X160482380Y-100543809D02*
X159482380Y-100543809D01*
X160434761Y-100543809D02*
X160482380Y-100448571D01*
X160482380Y-100258095D01*
X160434761Y-100162857D01*
X160387142Y-100115238D01*
X160291904Y-100067619D01*
X160006190Y-100067619D01*
X159910952Y-100115238D01*
X159863333Y-100162857D01*
X159815714Y-100258095D01*
X159815714Y-100448571D01*
X159863333Y-100543809D01*
X160482380Y-101448571D02*
X159958571Y-101448571D01*
X159863333Y-101400952D01*
X159815714Y-101305714D01*
X159815714Y-101115238D01*
X159863333Y-101020000D01*
X160434761Y-101448571D02*
X160482380Y-101353333D01*
X160482380Y-101115238D01*
X160434761Y-101020000D01*
X160339523Y-100972380D01*
X160244285Y-100972380D01*
X160149047Y-101020000D01*
X160101428Y-101115238D01*
X160101428Y-101353333D01*
X160053809Y-101448571D01*
X160387142Y-101924761D02*
X160434761Y-101972380D01*
X160482380Y-101924761D01*
X160434761Y-101877142D01*
X160387142Y-101924761D01*
X160482380Y-101924761D01*
X159815714Y-102829523D02*
X160625238Y-102829523D01*
X160720476Y-102781904D01*
X160768095Y-102734285D01*
X160815714Y-102639047D01*
X160815714Y-102496190D01*
X160768095Y-102400952D01*
X160434761Y-102829523D02*
X160482380Y-102734285D01*
X160482380Y-102543809D01*
X160434761Y-102448571D01*
X160387142Y-102400952D01*
X160291904Y-102353333D01*
X160006190Y-102353333D01*
X159910952Y-102400952D01*
X159863333Y-102448571D01*
X159815714Y-102543809D01*
X159815714Y-102734285D01*
X159863333Y-102829523D01*
X160482380Y-103305714D02*
X159815714Y-103305714D01*
X159482380Y-103305714D02*
X159530000Y-103258095D01*
X159577619Y-103305714D01*
X159530000Y-103353333D01*
X159482380Y-103305714D01*
X159577619Y-103305714D01*
X159815714Y-103639047D02*
X159815714Y-104020000D01*
X159482380Y-103781904D02*
X160339523Y-103781904D01*
X160434761Y-103829523D01*
X160482380Y-103924761D01*
X160482380Y-104020000D01*
X160482380Y-104353333D02*
X159482380Y-104353333D01*
X160482380Y-104781904D02*
X159958571Y-104781904D01*
X159863333Y-104734285D01*
X159815714Y-104639047D01*
X159815714Y-104496190D01*
X159863333Y-104400952D01*
X159910952Y-104353333D01*
X159815714Y-105686666D02*
X160482380Y-105686666D01*
X159815714Y-105258095D02*
X160339523Y-105258095D01*
X160434761Y-105305714D01*
X160482380Y-105400952D01*
X160482380Y-105543809D01*
X160434761Y-105639047D01*
X160387142Y-105686666D01*
X160482380Y-106162857D02*
X159482380Y-106162857D01*
X159863333Y-106162857D02*
X159815714Y-106258095D01*
X159815714Y-106448571D01*
X159863333Y-106543809D01*
X159910952Y-106591428D01*
X160006190Y-106639047D01*
X160291904Y-106639047D01*
X160387142Y-106591428D01*
X160434761Y-106543809D01*
X160482380Y-106448571D01*
X160482380Y-106258095D01*
X160434761Y-106162857D01*
X160387142Y-107067619D02*
X160434761Y-107115238D01*
X160482380Y-107067619D01*
X160434761Y-107020000D01*
X160387142Y-107067619D01*
X160482380Y-107067619D01*
X160482380Y-107543809D02*
X159815714Y-107543809D01*
X159482380Y-107543809D02*
X159530000Y-107496190D01*
X159577619Y-107543809D01*
X159530000Y-107591428D01*
X159482380Y-107543809D01*
X159577619Y-107543809D01*
X160482380Y-108162857D02*
X160434761Y-108067619D01*
X160387142Y-108020000D01*
X160291904Y-107972380D01*
X160006190Y-107972380D01*
X159910952Y-108020000D01*
X159863333Y-108067619D01*
X159815714Y-108162857D01*
X159815714Y-108305714D01*
X159863333Y-108400952D01*
X159910952Y-108448571D01*
X160006190Y-108496190D01*
X160291904Y-108496190D01*
X160387142Y-108448571D01*
X160434761Y-108400952D01*
X160482380Y-108305714D01*
X160482380Y-108162857D01*
M02*
