G04 #@! TF.GenerationSoftware,KiCad,Pcbnew,(5.1.5)-3*
G04 #@! TF.CreationDate,2020-03-05T02:26:09+05:30*
G04 #@! TF.ProjectId,Pyrolight,5079726f-6c69-4676-9874-2e6b69636164,V1.0*
G04 #@! TF.SameCoordinates,Original*
G04 #@! TF.FileFunction,Soldermask,Bot*
G04 #@! TF.FilePolarity,Negative*
%FSLAX46Y46*%
G04 Gerber Fmt 4.6, Leading zero omitted, Abs format (unit mm)*
G04 Created by KiCad (PCBNEW (5.1.5)-3) date 2020-03-05 02:26:09*
%MOMM*%
%LPD*%
G04 APERTURE LIST*
%ADD10O,1.510000X3.010000*%
%ADD11C,1.450000*%
%ADD12O,1.200000X1.900000*%
%ADD13R,1.700000X1.700000*%
%ADD14O,1.700000X1.700000*%
%ADD15R,1.850000X1.850000*%
%ADD16C,1.850000*%
%ADD17C,0.800000*%
%ADD18C,0.500000*%
G04 APERTURE END LIST*
D10*
X147940000Y-80120000D03*
X145400000Y-80120000D03*
D11*
X156800000Y-80182500D03*
X151800000Y-80182500D03*
D12*
X157800000Y-77482500D03*
X150800000Y-77482500D03*
D13*
X165200000Y-103370000D03*
D14*
X165200000Y-100830000D03*
X165200000Y-98290000D03*
X165200000Y-95750000D03*
X165200000Y-93210000D03*
X165200000Y-90670000D03*
X165200000Y-88130000D03*
X165200000Y-85590000D03*
X142950000Y-85340000D03*
X142950000Y-87880000D03*
X142950000Y-90420000D03*
X142950000Y-92960000D03*
X142950000Y-95500000D03*
X142950000Y-98040000D03*
X142950000Y-100580000D03*
D13*
X142950000Y-103120000D03*
D15*
X156560000Y-110920000D03*
D16*
X159060000Y-110920000D03*
X161560000Y-110920000D03*
X151660000Y-110920000D03*
X149160000Y-110920000D03*
D15*
X146660000Y-110920000D03*
D17*
X150450000Y-104620000D03*
X152614347Y-94784347D03*
X148413797Y-92870000D03*
X161950000Y-97620000D03*
D18*
X151200000Y-90295000D03*
D17*
X151450000Y-100370000D03*
X157417849Y-93663000D03*
X158200000Y-92119990D03*
D18*
X146450000Y-87870000D03*
X150200000Y-98120000D03*
X161918413Y-99338413D03*
X155941911Y-90583948D03*
X146950000Y-92120000D03*
X162950000Y-100120000D03*
D17*
X159700000Y-84620000D03*
X149950000Y-88120000D03*
X157700000Y-95870000D03*
X157700000Y-98620000D03*
X153200000Y-84370000D03*
X151843018Y-98010757D03*
X150203811Y-101344108D03*
X157926082Y-90419988D03*
X152200000Y-90870000D03*
X154450000Y-91594990D03*
X148119381Y-100524683D03*
X144700000Y-100870000D03*
X149950000Y-108620000D03*
X148950000Y-98120000D03*
X147200000Y-104620000D03*
X148724990Y-96370000D03*
X143400001Y-83870000D03*
X147189349Y-87191058D03*
X152700000Y-86370000D03*
X154047653Y-87967653D03*
X156175000Y-84370000D03*
M02*
