G04 #@! TF.GenerationSoftware,KiCad,Pcbnew,(5.1.5)-3*
G04 #@! TF.CreationDate,2020-03-05T02:26:09+05:30*
G04 #@! TF.ProjectId,Pyrolight,5079726f-6c69-4676-9874-2e6b69636164,V1.0*
G04 #@! TF.SameCoordinates,Original*
G04 #@! TF.FileFunction,Soldermask,Top*
G04 #@! TF.FilePolarity,Negative*
%FSLAX46Y46*%
G04 Gerber Fmt 4.6, Leading zero omitted, Abs format (unit mm)*
G04 Created by KiCad (PCBNEW (5.1.5)-3) date 2020-03-05 02:26:09*
%MOMM*%
%LPD*%
G04 APERTURE LIST*
%ADD10O,1.510000X3.010000*%
%ADD11R,1.000000X1.250000*%
%ADD12R,0.800000X0.750000*%
%ADD13R,0.800000X0.800000*%
%ADD14R,1.800000X2.500000*%
%ADD15R,0.800000X0.900000*%
%ADD16R,1.200000X1.400000*%
%ADD17R,0.900000X0.500000*%
%ADD18R,0.500000X0.900000*%
%ADD19R,0.650000X1.060000*%
%ADD20R,1.270000X0.406400*%
%ADD21R,1.500000X1.900000*%
%ADD22C,1.450000*%
%ADD23R,0.400000X1.350000*%
%ADD24O,1.200000X1.900000*%
%ADD25R,1.200000X1.900000*%
%ADD26R,2.750000X1.000000*%
%ADD27R,1.700000X1.700000*%
%ADD28O,1.700000X1.700000*%
%ADD29R,1.850000X1.850000*%
%ADD30C,1.850000*%
%ADD31C,0.800000*%
%ADD32C,0.500000*%
G04 APERTURE END LIST*
D10*
X147940000Y-80120000D03*
X145400000Y-80120000D03*
D11*
X147900000Y-90820000D03*
X145900000Y-90820000D03*
D12*
X159350000Y-98220000D03*
X160850000Y-98220000D03*
X161000000Y-91420000D03*
X159500000Y-91420000D03*
X149400000Y-99920000D03*
X150900000Y-99920000D03*
X160850000Y-99920000D03*
X159350000Y-99920000D03*
D11*
X153700000Y-82820000D03*
X151700000Y-82820000D03*
X156450000Y-82820000D03*
X158450000Y-82820000D03*
D13*
X142700000Y-79620000D03*
X142700000Y-78020000D03*
D14*
X161000000Y-82420000D03*
X161000000Y-78420000D03*
X146900000Y-93920000D03*
X146900000Y-97920000D03*
D15*
X150250000Y-89620000D03*
X152150000Y-89620000D03*
X151200000Y-87620000D03*
D13*
X164100000Y-82120000D03*
X164100000Y-80520000D03*
D16*
X159450000Y-95820000D03*
X159450000Y-93620000D03*
X161150000Y-93620000D03*
X161150000Y-95820000D03*
D15*
X148300000Y-105220000D03*
X149250000Y-107220000D03*
X147350000Y-107220000D03*
X154500000Y-105120000D03*
X155450000Y-107120000D03*
X153550000Y-107120000D03*
X158250000Y-104920000D03*
X160150000Y-104920000D03*
X159200000Y-102920000D03*
D17*
X165800000Y-78970000D03*
X165800000Y-80470000D03*
X164100000Y-78970000D03*
X164100000Y-77470000D03*
X142700000Y-82870000D03*
X142700000Y-81370000D03*
D18*
X147450000Y-84370000D03*
X145950000Y-84370000D03*
X149350000Y-85420000D03*
X150850000Y-85420000D03*
X155650000Y-99920000D03*
X157150000Y-99920000D03*
X154050000Y-99920000D03*
X152550000Y-99920000D03*
D17*
X145700000Y-107020000D03*
X145700000Y-105520000D03*
X151300000Y-107270000D03*
X151300000Y-105770000D03*
D18*
X154750000Y-103420000D03*
X153250000Y-103420000D03*
X153950000Y-85420000D03*
X152450000Y-85420000D03*
X156450000Y-85370000D03*
X157950000Y-85370000D03*
X160250000Y-107020000D03*
X161750000Y-107020000D03*
X157350000Y-107020000D03*
X158850000Y-107020000D03*
D19*
X147550000Y-86120000D03*
X146600000Y-86120000D03*
X145650000Y-86120000D03*
X145650000Y-88320000D03*
X147550000Y-88320000D03*
D20*
X150733000Y-97441000D03*
X150733000Y-96806000D03*
X150733000Y-96145600D03*
X150733000Y-95485200D03*
X150733000Y-94850200D03*
X150733000Y-94189800D03*
X150733000Y-93529400D03*
X150733000Y-92894400D03*
X150733000Y-92234000D03*
X150733000Y-91599000D03*
X156067000Y-91599000D03*
X156067000Y-92234000D03*
X156067000Y-92894400D03*
X156067000Y-93529400D03*
X156067000Y-94189800D03*
X156067000Y-94850200D03*
X156067000Y-95485200D03*
X156067000Y-96145600D03*
X156067000Y-96806000D03*
X156067000Y-97441000D03*
D19*
X155050000Y-87320000D03*
X156950000Y-87320000D03*
X156950000Y-89520000D03*
X156000000Y-89520000D03*
X155050000Y-89520000D03*
D21*
X153300000Y-77482500D03*
D22*
X156800000Y-80182500D03*
D23*
X154950000Y-80182500D03*
X155600000Y-80182500D03*
X153000000Y-80182500D03*
X153650000Y-80182500D03*
X154300000Y-80182500D03*
D22*
X151800000Y-80182500D03*
D21*
X155300000Y-77482500D03*
D24*
X157800000Y-77482500D03*
X150800000Y-77482500D03*
D25*
X151400000Y-77482500D03*
X157200000Y-77482500D03*
D26*
X160500000Y-86470000D03*
X160500000Y-88770000D03*
D15*
X147000000Y-103420000D03*
X146050000Y-101420000D03*
X147950000Y-101420000D03*
D27*
X165200000Y-103370000D03*
D28*
X165200000Y-100830000D03*
X165200000Y-98290000D03*
X165200000Y-95750000D03*
X165200000Y-93210000D03*
X165200000Y-90670000D03*
X165200000Y-88130000D03*
X165200000Y-85590000D03*
X142950000Y-85340000D03*
X142950000Y-87880000D03*
X142950000Y-90420000D03*
X142950000Y-92960000D03*
X142950000Y-95500000D03*
X142950000Y-98040000D03*
X142950000Y-100580000D03*
D27*
X142950000Y-103120000D03*
D29*
X156560000Y-110920000D03*
D30*
X159060000Y-110920000D03*
X161560000Y-110920000D03*
X151660000Y-110920000D03*
X149160000Y-110920000D03*
D29*
X146660000Y-110920000D03*
D31*
X150450000Y-104620000D03*
X152614347Y-94784347D03*
X148413797Y-92870000D03*
X161950000Y-97620000D03*
D32*
X151200000Y-90295000D03*
D31*
X151450000Y-100370000D03*
X157417849Y-93663000D03*
X158200000Y-92119990D03*
D32*
X146450000Y-87870000D03*
X150200000Y-98120000D03*
X161918413Y-99338413D03*
X155941911Y-90583948D03*
X146950000Y-92120000D03*
X162950000Y-100120000D03*
D31*
X159700000Y-84620000D03*
X149950000Y-88120000D03*
X157700000Y-95870000D03*
X157700000Y-98620000D03*
X153200000Y-84370000D03*
X151843018Y-98010757D03*
X150203811Y-101344108D03*
X157926082Y-90419988D03*
X152200000Y-90870000D03*
X154450000Y-91594990D03*
X148119381Y-100524683D03*
X144700000Y-100870000D03*
X149950000Y-108620000D03*
X148950000Y-98120000D03*
X147200000Y-104620000D03*
X148724990Y-96370000D03*
X143400001Y-83870000D03*
X147189349Y-87191058D03*
X152700000Y-86370000D03*
X154047653Y-87967653D03*
X156175000Y-84370000D03*
M02*
