M48
; DRILL file {KiCad (5.1.5)-3} date 03/05/20 02:25:54
; FORMAT={3:3/ absolute / metric / suppress leading zeros}
; #@! TF.CreationDate,2020-03-05T02:25:54+05:30
; #@! TF.GenerationSoftware,Kicad,Pcbnew,(5.1.5)-3
FMAT,2
METRIC,TZ
T1C0.300
T2C0.400
T3C0.600
T4C0.850
T5C0.900
T6C1.000
%
G90
G05
T1
X146450Y-87870
X146950Y-92120
X150200Y-98120
X151200Y-90295
X155942Y-90584
X161918Y-99338
X162950Y-100120
T2
X143400Y-83870
X144700Y-100870
X147189Y-87191
X147200Y-104620
X148119Y-100525
X148414Y-92870
X148725Y-96370
X148950Y-98120
X149950Y-88120
X149950Y-108620
X150204Y-101344
X150450Y-104620
X151450Y-100370
X151843Y-98011
X152200Y-90870
X152614Y-94784
X152700Y-86370
X153200Y-84370
X154048Y-87968
X154450Y-91595
X156175Y-84370
X157418Y-93663
X157700Y-95870
X157700Y-98620
X157926Y-90420
X158200Y-92120
X159700Y-84620
X161950Y-97620
T4
X151800Y-80182
X156800Y-80182
T5
X146660Y-110920
X149160Y-110920
X151660Y-110920
X156560Y-110920
X159060Y-110920
X161560Y-110920
T6
X142950Y-85340
X142950Y-87880
X142950Y-90420
X142950Y-92960
X142950Y-95500
X142950Y-98040
X142950Y-100580
X142950Y-103120
X165200Y-85590
X165200Y-88130
X165200Y-90670
X165200Y-93210
X165200Y-95750
X165200Y-98290
X165200Y-100830
X165200Y-103370
X145400Y-80120
X147940Y-80120
T3
G00X150800Y-77832
M15
G01X150800Y-77132
M16
G05
G00X157800Y-77132
M15
G01X157800Y-77832
M16
G05
T0
M30
