G04 #@! TF.GenerationSoftware,KiCad,Pcbnew,(5.1.5)-3*
G04 #@! TF.CreationDate,2020-03-05T02:26:09+05:30*
G04 #@! TF.ProjectId,Pyrolight,5079726f-6c69-4676-9874-2e6b69636164,V1.0*
G04 #@! TF.SameCoordinates,Original*
G04 #@! TF.FileFunction,Copper,L2,Bot*
G04 #@! TF.FilePolarity,Positive*
%FSLAX46Y46*%
G04 Gerber Fmt 4.6, Leading zero omitted, Abs format (unit mm)*
G04 Created by KiCad (PCBNEW (5.1.5)-3) date 2020-03-05 02:26:09*
%MOMM*%
%LPD*%
G04 APERTURE LIST*
%ADD10O,1.510000X3.010000*%
%ADD11C,1.450000*%
%ADD12O,1.200000X1.900000*%
%ADD13R,1.700000X1.700000*%
%ADD14O,1.700000X1.700000*%
%ADD15R,1.850000X1.850000*%
%ADD16C,1.850000*%
%ADD17C,0.800000*%
%ADD18C,0.500000*%
%ADD19C,0.250000*%
%ADD20C,0.350000*%
%ADD21C,0.225000*%
%ADD22C,0.200000*%
%ADD23C,0.254000*%
G04 APERTURE END LIST*
D10*
X147940000Y-80120000D03*
X145400000Y-80120000D03*
D11*
X156800000Y-80182500D03*
X151800000Y-80182500D03*
D12*
X157800000Y-77482500D03*
X150800000Y-77482500D03*
D13*
X165200000Y-103370000D03*
D14*
X165200000Y-100830000D03*
X165200000Y-98290000D03*
X165200000Y-95750000D03*
X165200000Y-93210000D03*
X165200000Y-90670000D03*
X165200000Y-88130000D03*
X165200000Y-85590000D03*
X142950000Y-85340000D03*
X142950000Y-87880000D03*
X142950000Y-90420000D03*
X142950000Y-92960000D03*
X142950000Y-95500000D03*
X142950000Y-98040000D03*
X142950000Y-100580000D03*
D13*
X142950000Y-103120000D03*
D15*
X156560000Y-110920000D03*
D16*
X159060000Y-110920000D03*
X161560000Y-110920000D03*
X151660000Y-110920000D03*
X149160000Y-110920000D03*
D15*
X146660000Y-110920000D03*
D17*
X150450000Y-104620000D03*
X152614347Y-94784347D03*
X148413797Y-92870000D03*
X161950000Y-97620000D03*
D18*
X151200000Y-90295000D03*
D17*
X151450000Y-100370000D03*
X157417849Y-93663000D03*
X158200000Y-92119990D03*
D18*
X146450000Y-87870000D03*
X150200000Y-98120000D03*
X161918413Y-99338413D03*
X155941911Y-90583948D03*
X146950000Y-92120000D03*
X162950000Y-100120000D03*
D17*
X159700000Y-84620000D03*
X149950000Y-88120000D03*
X157700000Y-95870000D03*
X157700000Y-98620000D03*
X153200000Y-84370000D03*
X151843018Y-98010757D03*
X150203811Y-101344108D03*
X157926082Y-90419988D03*
X152200000Y-90870000D03*
X154450000Y-91594990D03*
X148119381Y-100524683D03*
X144700000Y-100870000D03*
X149950000Y-108620000D03*
X148950000Y-98120000D03*
X147200000Y-104620000D03*
X148724990Y-96370000D03*
X143400001Y-83870000D03*
X147189349Y-87191058D03*
X152700000Y-86370000D03*
X154047653Y-87967653D03*
X156175000Y-84370000D03*
D19*
X152614347Y-102455653D02*
X152614347Y-95350032D01*
X152614347Y-95350032D02*
X152614347Y-94784347D01*
X150450000Y-104620000D02*
X152614347Y-102455653D01*
X148413797Y-92870000D02*
X148413797Y-93583797D01*
X161950000Y-97620000D02*
X161950000Y-98370000D01*
X151200000Y-90295000D02*
X151200000Y-89870000D01*
D20*
X146450000Y-90370000D02*
X146200000Y-90370000D01*
X151450000Y-100370000D02*
X151450000Y-101370000D01*
D19*
X146450000Y-87870000D02*
X146950000Y-88370000D01*
X150200000Y-98120000D02*
X149950000Y-98370000D01*
X161918413Y-99338413D02*
X162168414Y-99088414D01*
D20*
X156295464Y-90583948D02*
X156509412Y-90370000D01*
X155941911Y-90583948D02*
X156295464Y-90583948D01*
X146950000Y-92120000D02*
X147450000Y-92120000D01*
D21*
X162700000Y-100120000D02*
X161918413Y-99338413D01*
X162950000Y-100120000D02*
X162700000Y-100120000D01*
D20*
X159300001Y-85019999D02*
X159300001Y-86519999D01*
X159700000Y-84620000D02*
X159300001Y-85019999D01*
X150572654Y-88742654D02*
X149950000Y-88120000D01*
X159300001Y-86519999D02*
X157077346Y-88742654D01*
X157077346Y-88742654D02*
X150572654Y-88742654D01*
X157700000Y-95870000D02*
X157700000Y-98620000D01*
X148350001Y-110070001D02*
X149200000Y-110920000D01*
X146424999Y-108144999D02*
X148350001Y-110070001D01*
X146424999Y-98974999D02*
X146424999Y-108144999D01*
X142950000Y-95500000D02*
X146424999Y-98974999D01*
X151924999Y-85645001D02*
X151174999Y-85645001D01*
X153200000Y-84370000D02*
X151924999Y-85645001D01*
X147700000Y-89120000D02*
X146700000Y-89120000D01*
X151174999Y-85645001D02*
X147700000Y-89120000D01*
X142950000Y-85340000D02*
X146700000Y-89120000D01*
X150203811Y-101344108D02*
X150203811Y-99649964D01*
X150203811Y-99649964D02*
X151843018Y-98010757D01*
X157526083Y-90819987D02*
X157926082Y-90419988D01*
X156227948Y-92118122D02*
X157526083Y-90819987D01*
X156227948Y-94397948D02*
X156227948Y-92118122D01*
X157700000Y-95870000D02*
X156227948Y-94397948D01*
X155976070Y-92370000D02*
X157926082Y-90419988D01*
X146700000Y-89120000D02*
X149980000Y-92370000D01*
X149980000Y-92370000D02*
X155976070Y-92370000D01*
D19*
X152200000Y-90870000D02*
X153725010Y-90870000D01*
X153725010Y-90870000D02*
X154450000Y-91594990D01*
X151740000Y-110920000D02*
X151740012Y-110920000D01*
D22*
X148119381Y-99958998D02*
X148119381Y-100524683D01*
X153314348Y-94448346D02*
X152950348Y-94084346D01*
X158575300Y-100830000D02*
X153314348Y-95569048D01*
X165200000Y-100830000D02*
X158575300Y-100830000D01*
X148942693Y-97419999D02*
X148613999Y-97419999D01*
X148119381Y-97914617D02*
X148119381Y-99958998D01*
X152278346Y-94084346D02*
X148942693Y-97419999D01*
X152950348Y-94084346D02*
X152278346Y-94084346D01*
X153314348Y-95569048D02*
X153314348Y-94448346D01*
X148613999Y-97419999D02*
X148119381Y-97914617D01*
D19*
X144125001Y-100295001D02*
X144700000Y-100870000D01*
X143609002Y-99279002D02*
X144125001Y-99795001D01*
X143264001Y-99279002D02*
X143609002Y-99279002D01*
X141275010Y-92094990D02*
X141275010Y-98104012D01*
X142540998Y-99370000D02*
X143173003Y-99370000D01*
X144125001Y-99795001D02*
X144125001Y-100295001D01*
X142950000Y-90420000D02*
X141275010Y-92094990D01*
X143173003Y-99370000D02*
X143264001Y-99279002D01*
X141275010Y-98104012D02*
X142540998Y-99370000D01*
X148950000Y-107620000D02*
X148950000Y-98685685D01*
X148950000Y-98685685D02*
X148950000Y-98120000D01*
X149950000Y-108620000D02*
X148950000Y-107620000D01*
X147200000Y-97894990D02*
X148724990Y-96370000D01*
X147200000Y-104620000D02*
X147200000Y-97894990D01*
D22*
X145455471Y-87191058D02*
X147189349Y-87191058D01*
X143400001Y-84189999D02*
X143502001Y-84189999D01*
X144100001Y-84787999D02*
X144100001Y-85824744D01*
X143400001Y-83870000D02*
X143400001Y-84189999D01*
X144100001Y-85824744D02*
X145455471Y-87191058D01*
X143502001Y-84189999D02*
X144100001Y-84787999D01*
D19*
X152700000Y-86370000D02*
X152700000Y-86620000D01*
X152700000Y-86620000D02*
X154047653Y-87967653D01*
X154047653Y-87967653D02*
X154047653Y-86497347D01*
X154047653Y-86497347D02*
X156175000Y-84370000D01*
D23*
G36*
X166193471Y-75542898D02*
G01*
X166365984Y-75594982D01*
X166464465Y-75644222D01*
X166551216Y-75690349D01*
X166701866Y-75813216D01*
X166825781Y-75963002D01*
X166918242Y-76134006D01*
X166975727Y-76319711D01*
X166998000Y-76531620D01*
X166998001Y-112200332D01*
X166977102Y-112413471D01*
X166920915Y-112599574D01*
X166829650Y-112771218D01*
X166706783Y-112921867D01*
X166556995Y-113045782D01*
X166465334Y-113095343D01*
X166369041Y-113143489D01*
X166200288Y-113195727D01*
X165988380Y-113218000D01*
X142319658Y-113218000D01*
X142145906Y-113200963D01*
X141775232Y-113015626D01*
X141400779Y-112641173D01*
X141381759Y-112605996D01*
X141327000Y-112429098D01*
X141327000Y-111845000D01*
X145096928Y-111845000D01*
X145109188Y-111969482D01*
X145145498Y-112089180D01*
X145204463Y-112199494D01*
X145283815Y-112296185D01*
X145380506Y-112375537D01*
X145490820Y-112434502D01*
X145610518Y-112470812D01*
X145735000Y-112483072D01*
X146374250Y-112480000D01*
X146533000Y-112321250D01*
X146533000Y-111047000D01*
X145258750Y-111047000D01*
X145100000Y-111205750D01*
X145096928Y-111845000D01*
X141327000Y-111845000D01*
X141327000Y-109995000D01*
X145096928Y-109995000D01*
X145100000Y-110634250D01*
X145258750Y-110793000D01*
X146533000Y-110793000D01*
X146533000Y-109518750D01*
X146374250Y-109360000D01*
X145735000Y-109356928D01*
X145610518Y-109369188D01*
X145490820Y-109405498D01*
X145380506Y-109464463D01*
X145283815Y-109543815D01*
X145204463Y-109640506D01*
X145145498Y-109750820D01*
X145109188Y-109870518D01*
X145096928Y-109995000D01*
X141327000Y-109995000D01*
X141327000Y-103970000D01*
X141461928Y-103970000D01*
X141474188Y-104094482D01*
X141510498Y-104214180D01*
X141569463Y-104324494D01*
X141648815Y-104421185D01*
X141745506Y-104500537D01*
X141855820Y-104559502D01*
X141975518Y-104595812D01*
X142100000Y-104608072D01*
X142664250Y-104605000D01*
X142823000Y-104446250D01*
X142823000Y-103247000D01*
X143077000Y-103247000D01*
X143077000Y-104446250D01*
X143235750Y-104605000D01*
X143800000Y-104608072D01*
X143924482Y-104595812D01*
X144044180Y-104559502D01*
X144154494Y-104500537D01*
X144251185Y-104421185D01*
X144330537Y-104324494D01*
X144389502Y-104214180D01*
X144425812Y-104094482D01*
X144438072Y-103970000D01*
X144435000Y-103405750D01*
X144276250Y-103247000D01*
X143077000Y-103247000D01*
X142823000Y-103247000D01*
X141623750Y-103247000D01*
X141465000Y-103405750D01*
X141461928Y-103970000D01*
X141327000Y-103970000D01*
X141327000Y-98830581D01*
X142163267Y-99666849D01*
X142016346Y-99813770D01*
X141884801Y-100010639D01*
X141794192Y-100229390D01*
X141748000Y-100461613D01*
X141748000Y-100698387D01*
X141794192Y-100930610D01*
X141884801Y-101149361D01*
X142016346Y-101346230D01*
X142183770Y-101513654D01*
X142362920Y-101633359D01*
X142100000Y-101631928D01*
X141975518Y-101644188D01*
X141855820Y-101680498D01*
X141745506Y-101739463D01*
X141648815Y-101818815D01*
X141569463Y-101915506D01*
X141510498Y-102025820D01*
X141474188Y-102145518D01*
X141461928Y-102270000D01*
X141465000Y-102834250D01*
X141623750Y-102993000D01*
X142823000Y-102993000D01*
X142823000Y-102973000D01*
X143077000Y-102973000D01*
X143077000Y-102993000D01*
X144276250Y-102993000D01*
X144435000Y-102834250D01*
X144438072Y-102270000D01*
X144425812Y-102145518D01*
X144389502Y-102025820D01*
X144330537Y-101915506D01*
X144251185Y-101818815D01*
X144154494Y-101739463D01*
X144044180Y-101680498D01*
X143924482Y-101644188D01*
X143800000Y-101631928D01*
X143537080Y-101633359D01*
X143716230Y-101513654D01*
X143883654Y-101346230D01*
X144006900Y-101161781D01*
X144033586Y-101226206D01*
X144115883Y-101349372D01*
X144220628Y-101454117D01*
X144343794Y-101536414D01*
X144480650Y-101593101D01*
X144625934Y-101622000D01*
X144774066Y-101622000D01*
X144919350Y-101593101D01*
X145056206Y-101536414D01*
X145179372Y-101454117D01*
X145284117Y-101349372D01*
X145366414Y-101226206D01*
X145423101Y-101089350D01*
X145452000Y-100944066D01*
X145452000Y-100795934D01*
X145423101Y-100650650D01*
X145366414Y-100513794D01*
X145284117Y-100390628D01*
X145179372Y-100285883D01*
X145056206Y-100203586D01*
X144919350Y-100146899D01*
X144774066Y-100118000D01*
X144625934Y-100118000D01*
X144623136Y-100118557D01*
X144602001Y-100097422D01*
X144602001Y-99818416D01*
X144604307Y-99795001D01*
X144602001Y-99771586D01*
X144602001Y-99771578D01*
X144595098Y-99701493D01*
X144567823Y-99611578D01*
X144523530Y-99528712D01*
X144478853Y-99474273D01*
X144478851Y-99474271D01*
X144463922Y-99456080D01*
X144445730Y-99441150D01*
X143962857Y-98958278D01*
X143947923Y-98940081D01*
X143875291Y-98880473D01*
X143832359Y-98857525D01*
X143883654Y-98806230D01*
X144015199Y-98609361D01*
X144105808Y-98390610D01*
X144152000Y-98158387D01*
X144152000Y-97921613D01*
X144105808Y-97689390D01*
X144015199Y-97470639D01*
X143883654Y-97273770D01*
X143716230Y-97106346D01*
X143519361Y-96974801D01*
X143300610Y-96884192D01*
X143068387Y-96838000D01*
X142831613Y-96838000D01*
X142599390Y-96884192D01*
X142380639Y-96974801D01*
X142183770Y-97106346D01*
X142016346Y-97273770D01*
X141884801Y-97470639D01*
X141794192Y-97689390D01*
X141752010Y-97901453D01*
X141752010Y-95638547D01*
X141794192Y-95850610D01*
X141884801Y-96069361D01*
X142016346Y-96266230D01*
X142183770Y-96433654D01*
X142380639Y-96565199D01*
X142599390Y-96655808D01*
X142831613Y-96702000D01*
X143068387Y-96702000D01*
X143300610Y-96655808D01*
X143342972Y-96638261D01*
X145897999Y-99193290D01*
X145898000Y-108119108D01*
X145895450Y-108144999D01*
X145905625Y-108248308D01*
X145935760Y-108347648D01*
X145935761Y-108347649D01*
X145984696Y-108439201D01*
X146050552Y-108519447D01*
X146070661Y-108535950D01*
X146920230Y-109385520D01*
X146787000Y-109518750D01*
X146787000Y-110793000D01*
X146807000Y-110793000D01*
X146807000Y-111047000D01*
X146787000Y-111047000D01*
X146787000Y-112321250D01*
X146945750Y-112480000D01*
X147585000Y-112483072D01*
X147709482Y-112470812D01*
X147829180Y-112434502D01*
X147939494Y-112375537D01*
X148036185Y-112296185D01*
X148115537Y-112199494D01*
X148174502Y-112089180D01*
X148210812Y-111969482D01*
X148223072Y-111845000D01*
X148222802Y-111788753D01*
X148345960Y-111911911D01*
X148555114Y-112051663D01*
X148787513Y-112147926D01*
X149034226Y-112197000D01*
X149285774Y-112197000D01*
X149532487Y-112147926D01*
X149764886Y-112051663D01*
X149974040Y-111911911D01*
X150151911Y-111734040D01*
X150291663Y-111524886D01*
X150387926Y-111292487D01*
X150410000Y-111181513D01*
X150432074Y-111292487D01*
X150528337Y-111524886D01*
X150668089Y-111734040D01*
X150845960Y-111911911D01*
X151055114Y-112051663D01*
X151287513Y-112147926D01*
X151534226Y-112197000D01*
X151785774Y-112197000D01*
X152032487Y-112147926D01*
X152264886Y-112051663D01*
X152474040Y-111911911D01*
X152651911Y-111734040D01*
X152791663Y-111524886D01*
X152887926Y-111292487D01*
X152937000Y-111045774D01*
X152937000Y-110794226D01*
X152887926Y-110547513D01*
X152791663Y-110315114D01*
X152651911Y-110105960D01*
X152540951Y-109995000D01*
X155281297Y-109995000D01*
X155281297Y-111845000D01*
X155288093Y-111914004D01*
X155308221Y-111980356D01*
X155340907Y-112041507D01*
X155384894Y-112095106D01*
X155438493Y-112139093D01*
X155499644Y-112171779D01*
X155565996Y-112191907D01*
X155635000Y-112198703D01*
X157485000Y-112198703D01*
X157554004Y-112191907D01*
X157620356Y-112171779D01*
X157681507Y-112139093D01*
X157735106Y-112095106D01*
X157779093Y-112041507D01*
X157811779Y-111980356D01*
X157831907Y-111914004D01*
X157838703Y-111845000D01*
X157838703Y-111308491D01*
X157928337Y-111524886D01*
X158068089Y-111734040D01*
X158245960Y-111911911D01*
X158455114Y-112051663D01*
X158687513Y-112147926D01*
X158934226Y-112197000D01*
X159185774Y-112197000D01*
X159432487Y-112147926D01*
X159664886Y-112051663D01*
X159739336Y-112001917D01*
X160657688Y-112001917D01*
X160744393Y-112258653D01*
X161021223Y-112392048D01*
X161318757Y-112468873D01*
X161625562Y-112486176D01*
X161929848Y-112443292D01*
X162219921Y-112341868D01*
X162375607Y-112258653D01*
X162462312Y-112001917D01*
X161560000Y-111099605D01*
X160657688Y-112001917D01*
X159739336Y-112001917D01*
X159874040Y-111911911D01*
X160051911Y-111734040D01*
X160145580Y-111593855D01*
X160221347Y-111735607D01*
X160478083Y-111822312D01*
X161380395Y-110920000D01*
X161739605Y-110920000D01*
X162641917Y-111822312D01*
X162898653Y-111735607D01*
X163032048Y-111458777D01*
X163108873Y-111161243D01*
X163126176Y-110854438D01*
X163083292Y-110550152D01*
X162981868Y-110260079D01*
X162898653Y-110104393D01*
X162641917Y-110017688D01*
X161739605Y-110920000D01*
X161380395Y-110920000D01*
X160478083Y-110017688D01*
X160221347Y-110104393D01*
X160149915Y-110252633D01*
X160051911Y-110105960D01*
X159874040Y-109928089D01*
X159739337Y-109838083D01*
X160657688Y-109838083D01*
X161560000Y-110740395D01*
X162462312Y-109838083D01*
X162375607Y-109581347D01*
X162098777Y-109447952D01*
X161801243Y-109371127D01*
X161494438Y-109353824D01*
X161190152Y-109396708D01*
X160900079Y-109498132D01*
X160744393Y-109581347D01*
X160657688Y-109838083D01*
X159739337Y-109838083D01*
X159664886Y-109788337D01*
X159432487Y-109692074D01*
X159185774Y-109643000D01*
X158934226Y-109643000D01*
X158687513Y-109692074D01*
X158455114Y-109788337D01*
X158245960Y-109928089D01*
X158068089Y-110105960D01*
X157928337Y-110315114D01*
X157838703Y-110531509D01*
X157838703Y-109995000D01*
X157831907Y-109925996D01*
X157811779Y-109859644D01*
X157779093Y-109798493D01*
X157735106Y-109744894D01*
X157681507Y-109700907D01*
X157620356Y-109668221D01*
X157554004Y-109648093D01*
X157485000Y-109641297D01*
X155635000Y-109641297D01*
X155565996Y-109648093D01*
X155499644Y-109668221D01*
X155438493Y-109700907D01*
X155384894Y-109744894D01*
X155340907Y-109798493D01*
X155308221Y-109859644D01*
X155288093Y-109925996D01*
X155281297Y-109995000D01*
X152540951Y-109995000D01*
X152474040Y-109928089D01*
X152264886Y-109788337D01*
X152032487Y-109692074D01*
X151785774Y-109643000D01*
X151534226Y-109643000D01*
X151287513Y-109692074D01*
X151055114Y-109788337D01*
X150845960Y-109928089D01*
X150668089Y-110105960D01*
X150528337Y-110315114D01*
X150432074Y-110547513D01*
X150410000Y-110658487D01*
X150387926Y-110547513D01*
X150291663Y-110315114D01*
X150151911Y-110105960D01*
X149974040Y-109928089D01*
X149764886Y-109788337D01*
X149532487Y-109692074D01*
X149285774Y-109643000D01*
X149034226Y-109643000D01*
X148787513Y-109692074D01*
X148737910Y-109712620D01*
X146951999Y-107926710D01*
X146951999Y-105331233D01*
X146980650Y-105343101D01*
X147125934Y-105372000D01*
X147274066Y-105372000D01*
X147419350Y-105343101D01*
X147556206Y-105286414D01*
X147679372Y-105204117D01*
X147784117Y-105099372D01*
X147866414Y-104976206D01*
X147923101Y-104839350D01*
X147952000Y-104694066D01*
X147952000Y-104545934D01*
X147923101Y-104400650D01*
X147866414Y-104263794D01*
X147784117Y-104140628D01*
X147679372Y-104035883D01*
X147677000Y-104034298D01*
X147677000Y-101133517D01*
X147763175Y-101191097D01*
X147900031Y-101247784D01*
X148045315Y-101276683D01*
X148193447Y-101276683D01*
X148338731Y-101247784D01*
X148473001Y-101192168D01*
X148473000Y-107596585D01*
X148470694Y-107620000D01*
X148473000Y-107643415D01*
X148473000Y-107643422D01*
X148479903Y-107713507D01*
X148507178Y-107803422D01*
X148551471Y-107886289D01*
X148611079Y-107958921D01*
X148629276Y-107973855D01*
X149198557Y-108543136D01*
X149198000Y-108545934D01*
X149198000Y-108694066D01*
X149226899Y-108839350D01*
X149283586Y-108976206D01*
X149365883Y-109099372D01*
X149470628Y-109204117D01*
X149593794Y-109286414D01*
X149730650Y-109343101D01*
X149875934Y-109372000D01*
X150024066Y-109372000D01*
X150169350Y-109343101D01*
X150306206Y-109286414D01*
X150429372Y-109204117D01*
X150534117Y-109099372D01*
X150616414Y-108976206D01*
X150673101Y-108839350D01*
X150702000Y-108694066D01*
X150702000Y-108545934D01*
X150673101Y-108400650D01*
X150616414Y-108263794D01*
X150534117Y-108140628D01*
X150429372Y-108035883D01*
X150306206Y-107953586D01*
X150169350Y-107896899D01*
X150024066Y-107868000D01*
X149875934Y-107868000D01*
X149873136Y-107868557D01*
X149427000Y-107422421D01*
X149427000Y-98705702D01*
X149429372Y-98704117D01*
X149534117Y-98599372D01*
X149616414Y-98476206D01*
X149673101Y-98339350D01*
X149702000Y-98194066D01*
X149702000Y-98045934D01*
X149673101Y-97900650D01*
X149616414Y-97763794D01*
X149534117Y-97640628D01*
X149447702Y-97554213D01*
X151922577Y-95079338D01*
X151947933Y-95140553D01*
X152030230Y-95263719D01*
X152134975Y-95368464D01*
X152137347Y-95370049D01*
X152137347Y-95373454D01*
X152137348Y-95373464D01*
X152137348Y-97318713D01*
X152062368Y-97287656D01*
X151917084Y-97258757D01*
X151768952Y-97258757D01*
X151623668Y-97287656D01*
X151486812Y-97344343D01*
X151363646Y-97426640D01*
X151258901Y-97531385D01*
X151176604Y-97654551D01*
X151119917Y-97791407D01*
X151091018Y-97936691D01*
X151091018Y-98017466D01*
X149849473Y-99259013D01*
X149829364Y-99275516D01*
X149773899Y-99343101D01*
X149763507Y-99355763D01*
X149714572Y-99447315D01*
X149684437Y-99546655D01*
X149674262Y-99649964D01*
X149676812Y-99675854D01*
X149676811Y-100807619D01*
X149619694Y-100864736D01*
X149537397Y-100987902D01*
X149480710Y-101124758D01*
X149451811Y-101270042D01*
X149451811Y-101418174D01*
X149480710Y-101563458D01*
X149537397Y-101700314D01*
X149619694Y-101823480D01*
X149724439Y-101928225D01*
X149847605Y-102010522D01*
X149984461Y-102067209D01*
X150129745Y-102096108D01*
X150277877Y-102096108D01*
X150423161Y-102067209D01*
X150560017Y-102010522D01*
X150683183Y-101928225D01*
X150787928Y-101823480D01*
X150870225Y-101700314D01*
X150926912Y-101563458D01*
X150955811Y-101418174D01*
X150955811Y-101270042D01*
X150926912Y-101124758D01*
X150870225Y-100987902D01*
X150787928Y-100864736D01*
X150730811Y-100807619D01*
X150730811Y-99868253D01*
X151836309Y-98762757D01*
X151917084Y-98762757D01*
X152062368Y-98733858D01*
X152137348Y-98702801D01*
X152137347Y-102258073D01*
X150526864Y-103868557D01*
X150524066Y-103868000D01*
X150375934Y-103868000D01*
X150230650Y-103896899D01*
X150093794Y-103953586D01*
X149970628Y-104035883D01*
X149865883Y-104140628D01*
X149783586Y-104263794D01*
X149726899Y-104400650D01*
X149698000Y-104545934D01*
X149698000Y-104694066D01*
X149726899Y-104839350D01*
X149783586Y-104976206D01*
X149865883Y-105099372D01*
X149970628Y-105204117D01*
X150093794Y-105286414D01*
X150230650Y-105343101D01*
X150375934Y-105372000D01*
X150524066Y-105372000D01*
X150669350Y-105343101D01*
X150806206Y-105286414D01*
X150929372Y-105204117D01*
X151034117Y-105099372D01*
X151116414Y-104976206D01*
X151173101Y-104839350D01*
X151202000Y-104694066D01*
X151202000Y-104545934D01*
X151201443Y-104543136D01*
X152935076Y-102809504D01*
X152953268Y-102794574D01*
X153012876Y-102721942D01*
X153057169Y-102639076D01*
X153084444Y-102549161D01*
X153087316Y-102520000D01*
X163996297Y-102520000D01*
X163996297Y-104220000D01*
X164003093Y-104289004D01*
X164023221Y-104355356D01*
X164055907Y-104416507D01*
X164099894Y-104470106D01*
X164153493Y-104514093D01*
X164214644Y-104546779D01*
X164280996Y-104566907D01*
X164350000Y-104573703D01*
X166050000Y-104573703D01*
X166119004Y-104566907D01*
X166185356Y-104546779D01*
X166246507Y-104514093D01*
X166300106Y-104470106D01*
X166344093Y-104416507D01*
X166376779Y-104355356D01*
X166396907Y-104289004D01*
X166403703Y-104220000D01*
X166403703Y-102520000D01*
X166396907Y-102450996D01*
X166376779Y-102384644D01*
X166344093Y-102323493D01*
X166300106Y-102269894D01*
X166246507Y-102225907D01*
X166185356Y-102193221D01*
X166119004Y-102173093D01*
X166050000Y-102166297D01*
X164350000Y-102166297D01*
X164280996Y-102173093D01*
X164214644Y-102193221D01*
X164153493Y-102225907D01*
X164099894Y-102269894D01*
X164055907Y-102323493D01*
X164023221Y-102384644D01*
X164003093Y-102450996D01*
X163996297Y-102520000D01*
X153087316Y-102520000D01*
X153091347Y-102479076D01*
X153091347Y-102479068D01*
X153093653Y-102455653D01*
X153091347Y-102432238D01*
X153091347Y-95985270D01*
X158239981Y-101133905D01*
X158254141Y-101151159D01*
X158322967Y-101207643D01*
X158398066Y-101247784D01*
X158401490Y-101249614D01*
X158486692Y-101275460D01*
X158575300Y-101284187D01*
X158597505Y-101282000D01*
X164086189Y-101282000D01*
X164134801Y-101399361D01*
X164266346Y-101596230D01*
X164433770Y-101763654D01*
X164630639Y-101895199D01*
X164849390Y-101985808D01*
X165081613Y-102032000D01*
X165318387Y-102032000D01*
X165550610Y-101985808D01*
X165769361Y-101895199D01*
X165966230Y-101763654D01*
X166133654Y-101596230D01*
X166265199Y-101399361D01*
X166355808Y-101180610D01*
X166402000Y-100948387D01*
X166402000Y-100711613D01*
X166355808Y-100479390D01*
X166265199Y-100260639D01*
X166133654Y-100063770D01*
X165966230Y-99896346D01*
X165769361Y-99764801D01*
X165550610Y-99674192D01*
X165318387Y-99628000D01*
X165081613Y-99628000D01*
X164849390Y-99674192D01*
X164630639Y-99764801D01*
X164433770Y-99896346D01*
X164266346Y-100063770D01*
X164134801Y-100260639D01*
X164086189Y-100378000D01*
X158762524Y-100378000D01*
X157756524Y-99372000D01*
X157774066Y-99372000D01*
X157919350Y-99343101D01*
X158056206Y-99286414D01*
X158179372Y-99204117D01*
X158284117Y-99099372D01*
X158366414Y-98976206D01*
X158423101Y-98839350D01*
X158452000Y-98694066D01*
X158452000Y-98545934D01*
X158423101Y-98400650D01*
X158366414Y-98263794D01*
X158284117Y-98140628D01*
X158227000Y-98083511D01*
X158227000Y-97545934D01*
X161198000Y-97545934D01*
X161198000Y-97694066D01*
X161226899Y-97839350D01*
X161283586Y-97976206D01*
X161365883Y-98099372D01*
X161470628Y-98204117D01*
X161473001Y-98205702D01*
X161473001Y-98393423D01*
X161479904Y-98463508D01*
X161507179Y-98553423D01*
X161551472Y-98636289D01*
X161611080Y-98708921D01*
X161683712Y-98768529D01*
X161766578Y-98812822D01*
X161856493Y-98840097D01*
X161950000Y-98849307D01*
X162043508Y-98840097D01*
X162133423Y-98812822D01*
X162216289Y-98768529D01*
X162288921Y-98708921D01*
X162348529Y-98636289D01*
X162392822Y-98553423D01*
X162420097Y-98463508D01*
X162427000Y-98393423D01*
X162427000Y-98205702D01*
X162429372Y-98204117D01*
X162461876Y-98171613D01*
X163998000Y-98171613D01*
X163998000Y-98408387D01*
X164044192Y-98640610D01*
X164134801Y-98859361D01*
X164266346Y-99056230D01*
X164433770Y-99223654D01*
X164630639Y-99355199D01*
X164849390Y-99445808D01*
X165081613Y-99492000D01*
X165318387Y-99492000D01*
X165550610Y-99445808D01*
X165769361Y-99355199D01*
X165966230Y-99223654D01*
X166133654Y-99056230D01*
X166265199Y-98859361D01*
X166355808Y-98640610D01*
X166402000Y-98408387D01*
X166402000Y-98171613D01*
X166355808Y-97939390D01*
X166265199Y-97720639D01*
X166133654Y-97523770D01*
X165966230Y-97356346D01*
X165769361Y-97224801D01*
X165550610Y-97134192D01*
X165318387Y-97088000D01*
X165081613Y-97088000D01*
X164849390Y-97134192D01*
X164630639Y-97224801D01*
X164433770Y-97356346D01*
X164266346Y-97523770D01*
X164134801Y-97720639D01*
X164044192Y-97939390D01*
X163998000Y-98171613D01*
X162461876Y-98171613D01*
X162534117Y-98099372D01*
X162616414Y-97976206D01*
X162673101Y-97839350D01*
X162702000Y-97694066D01*
X162702000Y-97545934D01*
X162673101Y-97400650D01*
X162616414Y-97263794D01*
X162534117Y-97140628D01*
X162429372Y-97035883D01*
X162306206Y-96953586D01*
X162169350Y-96896899D01*
X162024066Y-96868000D01*
X161875934Y-96868000D01*
X161730650Y-96896899D01*
X161593794Y-96953586D01*
X161470628Y-97035883D01*
X161365883Y-97140628D01*
X161283586Y-97263794D01*
X161226899Y-97400650D01*
X161198000Y-97545934D01*
X158227000Y-97545934D01*
X158227000Y-96406489D01*
X158284117Y-96349372D01*
X158366414Y-96226206D01*
X158423101Y-96089350D01*
X158452000Y-95944066D01*
X158452000Y-95795934D01*
X158423101Y-95650650D01*
X158415216Y-95631613D01*
X163998000Y-95631613D01*
X163998000Y-95868387D01*
X164044192Y-96100610D01*
X164134801Y-96319361D01*
X164266346Y-96516230D01*
X164433770Y-96683654D01*
X164630639Y-96815199D01*
X164849390Y-96905808D01*
X165081613Y-96952000D01*
X165318387Y-96952000D01*
X165550610Y-96905808D01*
X165769361Y-96815199D01*
X165966230Y-96683654D01*
X166133654Y-96516230D01*
X166265199Y-96319361D01*
X166355808Y-96100610D01*
X166402000Y-95868387D01*
X166402000Y-95631613D01*
X166355808Y-95399390D01*
X166265199Y-95180639D01*
X166133654Y-94983770D01*
X165966230Y-94816346D01*
X165769361Y-94684801D01*
X165550610Y-94594192D01*
X165318387Y-94548000D01*
X165081613Y-94548000D01*
X164849390Y-94594192D01*
X164630639Y-94684801D01*
X164433770Y-94816346D01*
X164266346Y-94983770D01*
X164134801Y-95180639D01*
X164044192Y-95399390D01*
X163998000Y-95631613D01*
X158415216Y-95631613D01*
X158366414Y-95513794D01*
X158284117Y-95390628D01*
X158179372Y-95285883D01*
X158056206Y-95203586D01*
X157919350Y-95146899D01*
X157774066Y-95118000D01*
X157693290Y-95118000D01*
X156754948Y-94179659D01*
X156754948Y-93091613D01*
X163998000Y-93091613D01*
X163998000Y-93328387D01*
X164044192Y-93560610D01*
X164134801Y-93779361D01*
X164266346Y-93976230D01*
X164433770Y-94143654D01*
X164630639Y-94275199D01*
X164849390Y-94365808D01*
X165081613Y-94412000D01*
X165318387Y-94412000D01*
X165550610Y-94365808D01*
X165769361Y-94275199D01*
X165966230Y-94143654D01*
X166133654Y-93976230D01*
X166265199Y-93779361D01*
X166355808Y-93560610D01*
X166402000Y-93328387D01*
X166402000Y-93091613D01*
X166355808Y-92859390D01*
X166265199Y-92640639D01*
X166133654Y-92443770D01*
X165966230Y-92276346D01*
X165769361Y-92144801D01*
X165550610Y-92054192D01*
X165318387Y-92008000D01*
X165081613Y-92008000D01*
X164849390Y-92054192D01*
X164630639Y-92144801D01*
X164433770Y-92276346D01*
X164266346Y-92443770D01*
X164134801Y-92640639D01*
X164044192Y-92859390D01*
X163998000Y-93091613D01*
X156754948Y-93091613D01*
X156754948Y-92336411D01*
X157248359Y-91843000D01*
X157917028Y-91174332D01*
X157919372Y-91171988D01*
X158000148Y-91171988D01*
X158145432Y-91143089D01*
X158282288Y-91086402D01*
X158405454Y-91004105D01*
X158510199Y-90899360D01*
X158592496Y-90776194D01*
X158649183Y-90639338D01*
X158678082Y-90494054D01*
X158678082Y-90345922D01*
X158649183Y-90200638D01*
X158592496Y-90063782D01*
X158510199Y-89940616D01*
X158405454Y-89835871D01*
X158282288Y-89753574D01*
X158145432Y-89696887D01*
X158000148Y-89667988D01*
X157852016Y-89667988D01*
X157706732Y-89696887D01*
X157569876Y-89753574D01*
X157446710Y-89835871D01*
X157341965Y-89940616D01*
X157259668Y-90063782D01*
X157202981Y-90200638D01*
X157174082Y-90345922D01*
X157174082Y-90426698D01*
X157171738Y-90429042D01*
X156486593Y-91114188D01*
X155873609Y-91727172D01*
X155853501Y-91743674D01*
X155836999Y-91763782D01*
X155757781Y-91843000D01*
X155161230Y-91843000D01*
X155173101Y-91814340D01*
X155202000Y-91669056D01*
X155202000Y-91520924D01*
X155173101Y-91375640D01*
X155116414Y-91238784D01*
X155034117Y-91115618D01*
X154929372Y-91010873D01*
X154806206Y-90928576D01*
X154669350Y-90871889D01*
X154524066Y-90842990D01*
X154375934Y-90842990D01*
X154373136Y-90843547D01*
X154078865Y-90549276D01*
X154063931Y-90531079D01*
X153991299Y-90471471D01*
X153908433Y-90427178D01*
X153818518Y-90399903D01*
X153748433Y-90393000D01*
X153748425Y-90393000D01*
X153725010Y-90390694D01*
X153701595Y-90393000D01*
X152785702Y-90393000D01*
X152784117Y-90390628D01*
X152679372Y-90285883D01*
X152556206Y-90203586D01*
X152419350Y-90146899D01*
X152274066Y-90118000D01*
X152125934Y-90118000D01*
X151980650Y-90146899D01*
X151843794Y-90203586D01*
X151801263Y-90232004D01*
X151778866Y-90119403D01*
X151733486Y-90009846D01*
X151677000Y-89925309D01*
X151677000Y-89846578D01*
X151670097Y-89776492D01*
X151642822Y-89686577D01*
X151598529Y-89603711D01*
X151538921Y-89531079D01*
X151466289Y-89471471D01*
X151383423Y-89427178D01*
X151293508Y-89399903D01*
X151200000Y-89390693D01*
X151106493Y-89399903D01*
X151016578Y-89427178D01*
X150933712Y-89471471D01*
X150861080Y-89531079D01*
X150801472Y-89603711D01*
X150757179Y-89686577D01*
X150729904Y-89776492D01*
X150723000Y-89846577D01*
X150723000Y-89925309D01*
X150666514Y-90009846D01*
X150621134Y-90119403D01*
X150598000Y-90235708D01*
X150598000Y-90354292D01*
X150621134Y-90470597D01*
X150666514Y-90580154D01*
X150732396Y-90678753D01*
X150816247Y-90762604D01*
X150914846Y-90828486D01*
X151024403Y-90873866D01*
X151140708Y-90897000D01*
X151259292Y-90897000D01*
X151375597Y-90873866D01*
X151448000Y-90843876D01*
X151448000Y-90944066D01*
X151476899Y-91089350D01*
X151533586Y-91226206D01*
X151615883Y-91349372D01*
X151720628Y-91454117D01*
X151843794Y-91536414D01*
X151980650Y-91593101D01*
X152125934Y-91622000D01*
X152274066Y-91622000D01*
X152419350Y-91593101D01*
X152556206Y-91536414D01*
X152679372Y-91454117D01*
X152784117Y-91349372D01*
X152785702Y-91347000D01*
X153527431Y-91347000D01*
X153698557Y-91518126D01*
X153698000Y-91520924D01*
X153698000Y-91669056D01*
X153726899Y-91814340D01*
X153738770Y-91843000D01*
X150196873Y-91843000D01*
X147928531Y-89595406D01*
X147994202Y-89560304D01*
X148074448Y-89494448D01*
X148090955Y-89474334D01*
X149226740Y-88338550D01*
X149226899Y-88339350D01*
X149283586Y-88476206D01*
X149365883Y-88599372D01*
X149470628Y-88704117D01*
X149593794Y-88786414D01*
X149730650Y-88843101D01*
X149875934Y-88872000D01*
X149956710Y-88872000D01*
X150181707Y-89096998D01*
X150198206Y-89117102D01*
X150278452Y-89182958D01*
X150370004Y-89231893D01*
X150469344Y-89262028D01*
X150572654Y-89272203D01*
X150598535Y-89269654D01*
X157051465Y-89269654D01*
X157077346Y-89272203D01*
X157103227Y-89269654D01*
X157180656Y-89262028D01*
X157279996Y-89231893D01*
X157371548Y-89182958D01*
X157451794Y-89117102D01*
X157468301Y-89096988D01*
X158078399Y-88486890D01*
X163758524Y-88486890D01*
X163803175Y-88634099D01*
X163928359Y-88896920D01*
X164102412Y-89130269D01*
X164318645Y-89325178D01*
X164568748Y-89474157D01*
X164771989Y-89546252D01*
X164630639Y-89604801D01*
X164433770Y-89736346D01*
X164266346Y-89903770D01*
X164134801Y-90100639D01*
X164044192Y-90319390D01*
X163998000Y-90551613D01*
X163998000Y-90788387D01*
X164044192Y-91020610D01*
X164134801Y-91239361D01*
X164266346Y-91436230D01*
X164433770Y-91603654D01*
X164630639Y-91735199D01*
X164849390Y-91825808D01*
X165081613Y-91872000D01*
X165318387Y-91872000D01*
X165550610Y-91825808D01*
X165769361Y-91735199D01*
X165966230Y-91603654D01*
X166133654Y-91436230D01*
X166265199Y-91239361D01*
X166355808Y-91020610D01*
X166402000Y-90788387D01*
X166402000Y-90551613D01*
X166355808Y-90319390D01*
X166265199Y-90100639D01*
X166133654Y-89903770D01*
X165966230Y-89736346D01*
X165769361Y-89604801D01*
X165628011Y-89546252D01*
X165831252Y-89474157D01*
X166081355Y-89325178D01*
X166297588Y-89130269D01*
X166471641Y-88896920D01*
X166596825Y-88634099D01*
X166641476Y-88486890D01*
X166520155Y-88257000D01*
X165327000Y-88257000D01*
X165327000Y-88277000D01*
X165073000Y-88277000D01*
X165073000Y-88257000D01*
X163879845Y-88257000D01*
X163758524Y-88486890D01*
X158078399Y-88486890D01*
X158792179Y-87773110D01*
X163758524Y-87773110D01*
X163879845Y-88003000D01*
X165073000Y-88003000D01*
X165073000Y-87983000D01*
X165327000Y-87983000D01*
X165327000Y-88003000D01*
X166520155Y-88003000D01*
X166641476Y-87773110D01*
X166596825Y-87625901D01*
X166471641Y-87363080D01*
X166297588Y-87129731D01*
X166081355Y-86934822D01*
X165831252Y-86785843D01*
X165628011Y-86713748D01*
X165769361Y-86655199D01*
X165966230Y-86523654D01*
X166133654Y-86356230D01*
X166265199Y-86159361D01*
X166355808Y-85940610D01*
X166402000Y-85708387D01*
X166402000Y-85471613D01*
X166355808Y-85239390D01*
X166265199Y-85020639D01*
X166133654Y-84823770D01*
X165966230Y-84656346D01*
X165769361Y-84524801D01*
X165550610Y-84434192D01*
X165318387Y-84388000D01*
X165081613Y-84388000D01*
X164849390Y-84434192D01*
X164630639Y-84524801D01*
X164433770Y-84656346D01*
X164266346Y-84823770D01*
X164134801Y-85020639D01*
X164044192Y-85239390D01*
X163998000Y-85471613D01*
X163998000Y-85708387D01*
X164044192Y-85940610D01*
X164134801Y-86159361D01*
X164266346Y-86356230D01*
X164433770Y-86523654D01*
X164630639Y-86655199D01*
X164771989Y-86713748D01*
X164568748Y-86785843D01*
X164318645Y-86934822D01*
X164102412Y-87129731D01*
X163928359Y-87363080D01*
X163803175Y-87625901D01*
X163758524Y-87773110D01*
X158792179Y-87773110D01*
X159654345Y-86910945D01*
X159674449Y-86894447D01*
X159740305Y-86814201D01*
X159789240Y-86722649D01*
X159819375Y-86623309D01*
X159827001Y-86545880D01*
X159829550Y-86519999D01*
X159827001Y-86494118D01*
X159827001Y-85361470D01*
X159919350Y-85343101D01*
X160056206Y-85286414D01*
X160179372Y-85204117D01*
X160284117Y-85099372D01*
X160366414Y-84976206D01*
X160423101Y-84839350D01*
X160452000Y-84694066D01*
X160452000Y-84545934D01*
X160423101Y-84400650D01*
X160366414Y-84263794D01*
X160284117Y-84140628D01*
X160179372Y-84035883D01*
X160056206Y-83953586D01*
X159919350Y-83896899D01*
X159774066Y-83868000D01*
X159625934Y-83868000D01*
X159480650Y-83896899D01*
X159343794Y-83953586D01*
X159220628Y-84035883D01*
X159115883Y-84140628D01*
X159033586Y-84263794D01*
X158976899Y-84400650D01*
X158948000Y-84545934D01*
X158948000Y-84626711D01*
X158945667Y-84629044D01*
X158925553Y-84645551D01*
X158859697Y-84725797D01*
X158838319Y-84765794D01*
X158810762Y-84817350D01*
X158780627Y-84916690D01*
X158770452Y-85019999D01*
X158773001Y-85045880D01*
X158773002Y-86301707D01*
X156859057Y-88215654D01*
X154758886Y-88215654D01*
X154770754Y-88187003D01*
X154799653Y-88041719D01*
X154799653Y-87893587D01*
X154770754Y-87748303D01*
X154714067Y-87611447D01*
X154631770Y-87488281D01*
X154527025Y-87383536D01*
X154524653Y-87381951D01*
X154524653Y-86694926D01*
X156098136Y-85121443D01*
X156100934Y-85122000D01*
X156249066Y-85122000D01*
X156394350Y-85093101D01*
X156531206Y-85036414D01*
X156654372Y-84954117D01*
X156759117Y-84849372D01*
X156841414Y-84726206D01*
X156898101Y-84589350D01*
X156927000Y-84444066D01*
X156927000Y-84295934D01*
X156898101Y-84150650D01*
X156841414Y-84013794D01*
X156759117Y-83890628D01*
X156654372Y-83785883D01*
X156531206Y-83703586D01*
X156394350Y-83646899D01*
X156249066Y-83618000D01*
X156100934Y-83618000D01*
X155955650Y-83646899D01*
X155818794Y-83703586D01*
X155695628Y-83785883D01*
X155590883Y-83890628D01*
X155508586Y-84013794D01*
X155451899Y-84150650D01*
X155423000Y-84295934D01*
X155423000Y-84444066D01*
X155423557Y-84446864D01*
X153726924Y-86143497D01*
X153708733Y-86158426D01*
X153693804Y-86176617D01*
X153693801Y-86176620D01*
X153685630Y-86186577D01*
X153649125Y-86231058D01*
X153642016Y-86244358D01*
X153604831Y-86313925D01*
X153577556Y-86403840D01*
X153568347Y-86497347D01*
X153570654Y-86520772D01*
X153570654Y-86816074D01*
X153399912Y-86645333D01*
X153423101Y-86589350D01*
X153452000Y-86444066D01*
X153452000Y-86295934D01*
X153423101Y-86150650D01*
X153366414Y-86013794D01*
X153284117Y-85890628D01*
X153179372Y-85785883D01*
X153056206Y-85703586D01*
X152919350Y-85646899D01*
X152774066Y-85618000D01*
X152697290Y-85618000D01*
X153193290Y-85122000D01*
X153274066Y-85122000D01*
X153419350Y-85093101D01*
X153556206Y-85036414D01*
X153679372Y-84954117D01*
X153784117Y-84849372D01*
X153866414Y-84726206D01*
X153923101Y-84589350D01*
X153952000Y-84444066D01*
X153952000Y-84295934D01*
X153923101Y-84150650D01*
X153866414Y-84013794D01*
X153784117Y-83890628D01*
X153679372Y-83785883D01*
X153556206Y-83703586D01*
X153419350Y-83646899D01*
X153274066Y-83618000D01*
X153125934Y-83618000D01*
X152980650Y-83646899D01*
X152843794Y-83703586D01*
X152720628Y-83785883D01*
X152615883Y-83890628D01*
X152533586Y-84013794D01*
X152476899Y-84150650D01*
X152448000Y-84295934D01*
X152448000Y-84376710D01*
X151706710Y-85118001D01*
X151200880Y-85118001D01*
X151174999Y-85115452D01*
X151149118Y-85118001D01*
X151071689Y-85125627D01*
X150972349Y-85155762D01*
X150880797Y-85204697D01*
X150800551Y-85270553D01*
X150784053Y-85290656D01*
X147481711Y-88593000D01*
X146919522Y-88593000D01*
X145977119Y-87643058D01*
X146586943Y-87643058D01*
X146605232Y-87670430D01*
X146709977Y-87775175D01*
X146833143Y-87857472D01*
X146969999Y-87914159D01*
X147115283Y-87943058D01*
X147263415Y-87943058D01*
X147408699Y-87914159D01*
X147545555Y-87857472D01*
X147668721Y-87775175D01*
X147773466Y-87670430D01*
X147855763Y-87547264D01*
X147912450Y-87410408D01*
X147941349Y-87265124D01*
X147941349Y-87116992D01*
X147912450Y-86971708D01*
X147855763Y-86834852D01*
X147773466Y-86711686D01*
X147668721Y-86606941D01*
X147545555Y-86524644D01*
X147408699Y-86467957D01*
X147263415Y-86439058D01*
X147115283Y-86439058D01*
X146969999Y-86467957D01*
X146833143Y-86524644D01*
X146709977Y-86606941D01*
X146605232Y-86711686D01*
X146586943Y-86739058D01*
X145643751Y-86739058D01*
X144552001Y-85638574D01*
X144552001Y-84810204D01*
X144554188Y-84787999D01*
X144545461Y-84699391D01*
X144519615Y-84614189D01*
X144506338Y-84589350D01*
X144477644Y-84535666D01*
X144421160Y-84466840D01*
X144403907Y-84452681D01*
X144098931Y-84147705D01*
X144123102Y-84089350D01*
X144152001Y-83944066D01*
X144152001Y-83795934D01*
X144123102Y-83650650D01*
X144066415Y-83513794D01*
X143984118Y-83390628D01*
X143879373Y-83285883D01*
X143756207Y-83203586D01*
X143619351Y-83146899D01*
X143474067Y-83118000D01*
X143325935Y-83118000D01*
X143180651Y-83146899D01*
X143043795Y-83203586D01*
X142920629Y-83285883D01*
X142815884Y-83390628D01*
X142733587Y-83513794D01*
X142676900Y-83650650D01*
X142648001Y-83795934D01*
X142648001Y-83944066D01*
X142676900Y-84089350D01*
X142707294Y-84162729D01*
X142599390Y-84184192D01*
X142380639Y-84274801D01*
X142183770Y-84406346D01*
X142016346Y-84573770D01*
X141884801Y-84770639D01*
X141794192Y-84989390D01*
X141748000Y-85221613D01*
X141748000Y-85458387D01*
X141794192Y-85690610D01*
X141884801Y-85909361D01*
X142016346Y-86106230D01*
X142183770Y-86273654D01*
X142380639Y-86405199D01*
X142599390Y-86495808D01*
X142831613Y-86542000D01*
X143068387Y-86542000D01*
X143300610Y-86495808D01*
X143338661Y-86480047D01*
X146308382Y-89473526D01*
X146325552Y-89494448D01*
X146346606Y-89511727D01*
X149589819Y-92725277D01*
X149605552Y-92744448D01*
X149626599Y-92761721D01*
X149627455Y-92762569D01*
X149646521Y-92778070D01*
X149685798Y-92810304D01*
X149686876Y-92810880D01*
X149687824Y-92811651D01*
X149732648Y-92835345D01*
X149777350Y-92859239D01*
X149778519Y-92859594D01*
X149779600Y-92860165D01*
X149828177Y-92874657D01*
X149876690Y-92889374D01*
X149877907Y-92889494D01*
X149879077Y-92889843D01*
X149929499Y-92894575D01*
X149954119Y-92897000D01*
X149955336Y-92897000D01*
X149982432Y-92899543D01*
X150007091Y-92897000D01*
X155700949Y-92897000D01*
X155700948Y-94372067D01*
X155698399Y-94397948D01*
X155700948Y-94423828D01*
X155708574Y-94501257D01*
X155738709Y-94600597D01*
X155787644Y-94692150D01*
X155853500Y-94772396D01*
X155873614Y-94788903D01*
X156948000Y-95863290D01*
X156948000Y-95944066D01*
X156976899Y-96089350D01*
X157033586Y-96226206D01*
X157115883Y-96349372D01*
X157173000Y-96406489D01*
X157173001Y-98083510D01*
X157115883Y-98140628D01*
X157033586Y-98263794D01*
X156976899Y-98400650D01*
X156948000Y-98545934D01*
X156948000Y-98563476D01*
X153766348Y-95381825D01*
X153766348Y-94470551D01*
X153768535Y-94448346D01*
X153759808Y-94359738D01*
X153733962Y-94274536D01*
X153725206Y-94258155D01*
X153691991Y-94196013D01*
X153635507Y-94127187D01*
X153618253Y-94113027D01*
X153285671Y-93780446D01*
X153271507Y-93763187D01*
X153202681Y-93706703D01*
X153124158Y-93664732D01*
X153038955Y-93638886D01*
X152972553Y-93632346D01*
X152950348Y-93630159D01*
X152928143Y-93632346D01*
X152300551Y-93632346D01*
X152278346Y-93630159D01*
X152189738Y-93638886D01*
X152104536Y-93664732D01*
X152026013Y-93706703D01*
X151957187Y-93763187D01*
X151943027Y-93780441D01*
X149468785Y-96254684D01*
X149448091Y-96150650D01*
X149391404Y-96013794D01*
X149309107Y-95890628D01*
X149204362Y-95785883D01*
X149081196Y-95703586D01*
X148944340Y-95646899D01*
X148799056Y-95618000D01*
X148650924Y-95618000D01*
X148505640Y-95646899D01*
X148368784Y-95703586D01*
X148245618Y-95785883D01*
X148140873Y-95890628D01*
X148058576Y-96013794D01*
X148001889Y-96150650D01*
X147972990Y-96295934D01*
X147972990Y-96444066D01*
X147973547Y-96446864D01*
X146879271Y-97541140D01*
X146861080Y-97556069D01*
X146801472Y-97628701D01*
X146783521Y-97662285D01*
X146757178Y-97711568D01*
X146729903Y-97801483D01*
X146720694Y-97894990D01*
X146723001Y-97918415D01*
X146723001Y-98527710D01*
X144088261Y-95892972D01*
X144105808Y-95850610D01*
X144152000Y-95618387D01*
X144152000Y-95381613D01*
X144105808Y-95149390D01*
X144015199Y-94930639D01*
X143883654Y-94733770D01*
X143716230Y-94566346D01*
X143519361Y-94434801D01*
X143378011Y-94376252D01*
X143581252Y-94304157D01*
X143831355Y-94155178D01*
X144047588Y-93960269D01*
X144221641Y-93726920D01*
X144346825Y-93464099D01*
X144391476Y-93316890D01*
X144270155Y-93087000D01*
X143077000Y-93087000D01*
X143077000Y-93107000D01*
X142823000Y-93107000D01*
X142823000Y-93087000D01*
X142803000Y-93087000D01*
X142803000Y-92833000D01*
X142823000Y-92833000D01*
X142823000Y-92813000D01*
X143077000Y-92813000D01*
X143077000Y-92833000D01*
X144270155Y-92833000D01*
X144289716Y-92795934D01*
X147661797Y-92795934D01*
X147661797Y-92944066D01*
X147690696Y-93089350D01*
X147747383Y-93226206D01*
X147829680Y-93349372D01*
X147934425Y-93454117D01*
X147936798Y-93455702D01*
X147936798Y-93607220D01*
X147943701Y-93677305D01*
X147970976Y-93767220D01*
X148015269Y-93850086D01*
X148074877Y-93922718D01*
X148147509Y-93982326D01*
X148230375Y-94026619D01*
X148320290Y-94053894D01*
X148413797Y-94063104D01*
X148507305Y-94053894D01*
X148597220Y-94026619D01*
X148680086Y-93982326D01*
X148752718Y-93922718D01*
X148812326Y-93850086D01*
X148856619Y-93767220D01*
X148883894Y-93677305D01*
X148890797Y-93607220D01*
X148890797Y-93455702D01*
X148893169Y-93454117D01*
X148997914Y-93349372D01*
X149080211Y-93226206D01*
X149136898Y-93089350D01*
X149165797Y-92944066D01*
X149165797Y-92795934D01*
X149136898Y-92650650D01*
X149080211Y-92513794D01*
X148997914Y-92390628D01*
X148893169Y-92285883D01*
X148770003Y-92203586D01*
X148633147Y-92146899D01*
X148487863Y-92118000D01*
X148339731Y-92118000D01*
X148194447Y-92146899D01*
X148057591Y-92203586D01*
X147934425Y-92285883D01*
X147829680Y-92390628D01*
X147747383Y-92513794D01*
X147690696Y-92650650D01*
X147661797Y-92795934D01*
X144289716Y-92795934D01*
X144391476Y-92603110D01*
X144346825Y-92455901D01*
X144221641Y-92193080D01*
X144047588Y-91959731D01*
X143831355Y-91764822D01*
X143581252Y-91615843D01*
X143378011Y-91543748D01*
X143519361Y-91485199D01*
X143716230Y-91353654D01*
X143883654Y-91186230D01*
X144015199Y-90989361D01*
X144105808Y-90770610D01*
X144152000Y-90538387D01*
X144152000Y-90370000D01*
X145670451Y-90370000D01*
X145680626Y-90473310D01*
X145710761Y-90572650D01*
X145759696Y-90664202D01*
X145825552Y-90744448D01*
X145905798Y-90810304D01*
X145997350Y-90859239D01*
X146096690Y-90889374D01*
X146174119Y-90897000D01*
X146475881Y-90897000D01*
X146553310Y-90889374D01*
X146652650Y-90859239D01*
X146744202Y-90810304D01*
X146824448Y-90744448D01*
X146890304Y-90664202D01*
X146939239Y-90572650D01*
X146969374Y-90473310D01*
X146979549Y-90370000D01*
X146969374Y-90266690D01*
X146939239Y-90167350D01*
X146890304Y-90075798D01*
X146824448Y-89995552D01*
X146744202Y-89929696D01*
X146652650Y-89880761D01*
X146553310Y-89850626D01*
X146475881Y-89843000D01*
X146174119Y-89843000D01*
X146096690Y-89850626D01*
X145997350Y-89880761D01*
X145905798Y-89929696D01*
X145825552Y-89995552D01*
X145759696Y-90075798D01*
X145710761Y-90167350D01*
X145680626Y-90266690D01*
X145670451Y-90370000D01*
X144152000Y-90370000D01*
X144152000Y-90301613D01*
X144105808Y-90069390D01*
X144015199Y-89850639D01*
X143883654Y-89653770D01*
X143716230Y-89486346D01*
X143519361Y-89354801D01*
X143300610Y-89264192D01*
X143068387Y-89218000D01*
X142831613Y-89218000D01*
X142599390Y-89264192D01*
X142380639Y-89354801D01*
X142183770Y-89486346D01*
X142016346Y-89653770D01*
X141884801Y-89850639D01*
X141794192Y-90069390D01*
X141748000Y-90301613D01*
X141748000Y-90538387D01*
X141794192Y-90770610D01*
X141832449Y-90862971D01*
X141327000Y-91368421D01*
X141327000Y-87761613D01*
X141748000Y-87761613D01*
X141748000Y-87998387D01*
X141794192Y-88230610D01*
X141884801Y-88449361D01*
X142016346Y-88646230D01*
X142183770Y-88813654D01*
X142380639Y-88945199D01*
X142599390Y-89035808D01*
X142831613Y-89082000D01*
X143068387Y-89082000D01*
X143300610Y-89035808D01*
X143519361Y-88945199D01*
X143716230Y-88813654D01*
X143883654Y-88646230D01*
X144015199Y-88449361D01*
X144105808Y-88230610D01*
X144152000Y-87998387D01*
X144152000Y-87761613D01*
X144105808Y-87529390D01*
X144015199Y-87310639D01*
X143883654Y-87113770D01*
X143716230Y-86946346D01*
X143519361Y-86814801D01*
X143300610Y-86724192D01*
X143068387Y-86678000D01*
X142831613Y-86678000D01*
X142599390Y-86724192D01*
X142380639Y-86814801D01*
X142183770Y-86946346D01*
X142016346Y-87113770D01*
X141884801Y-87310639D01*
X141794192Y-87529390D01*
X141748000Y-87761613D01*
X141327000Y-87761613D01*
X141327000Y-79315622D01*
X144293000Y-79315622D01*
X144293000Y-80924379D01*
X144309018Y-81087010D01*
X144372318Y-81295680D01*
X144475111Y-81487992D01*
X144613447Y-81656554D01*
X144782009Y-81794890D01*
X144974321Y-81897683D01*
X145182991Y-81960982D01*
X145400000Y-81982356D01*
X145617010Y-81960982D01*
X145825680Y-81897683D01*
X146017992Y-81794890D01*
X146186554Y-81656554D01*
X146324890Y-81487992D01*
X146427683Y-81295680D01*
X146490982Y-81087010D01*
X146507000Y-80924379D01*
X146507000Y-80247000D01*
X146550000Y-80247000D01*
X146550000Y-80997000D01*
X146601485Y-81265735D01*
X146704408Y-81519262D01*
X146854814Y-81747839D01*
X147046923Y-81942681D01*
X147273353Y-82096300D01*
X147525402Y-82202793D01*
X147598029Y-82217277D01*
X147813000Y-82094683D01*
X147813000Y-80247000D01*
X148067000Y-80247000D01*
X148067000Y-82094683D01*
X148281971Y-82217277D01*
X148354598Y-82202793D01*
X148606647Y-82096300D01*
X148833077Y-81942681D01*
X149025186Y-81747839D01*
X149175592Y-81519262D01*
X149278515Y-81265735D01*
X149306122Y-81121633D01*
X151040472Y-81121633D01*
X151102965Y-81357950D01*
X151345678Y-81471350D01*
X151605849Y-81535219D01*
X151873482Y-81547104D01*
X152138291Y-81506548D01*
X152390100Y-81415109D01*
X152497035Y-81357950D01*
X152559528Y-81121633D01*
X156040472Y-81121633D01*
X156102965Y-81357950D01*
X156345678Y-81471350D01*
X156605849Y-81535219D01*
X156873482Y-81547104D01*
X157138291Y-81506548D01*
X157390100Y-81415109D01*
X157497035Y-81357950D01*
X157559528Y-81121633D01*
X156800000Y-80362105D01*
X156040472Y-81121633D01*
X152559528Y-81121633D01*
X151800000Y-80362105D01*
X151040472Y-81121633D01*
X149306122Y-81121633D01*
X149330000Y-80997000D01*
X149330000Y-80255982D01*
X150435396Y-80255982D01*
X150475952Y-80520791D01*
X150567391Y-80772600D01*
X150624550Y-80879535D01*
X150860867Y-80942028D01*
X151620395Y-80182500D01*
X151979605Y-80182500D01*
X152739133Y-80942028D01*
X152975450Y-80879535D01*
X153088850Y-80636822D01*
X153152719Y-80376651D01*
X153158077Y-80255982D01*
X155435396Y-80255982D01*
X155475952Y-80520791D01*
X155567391Y-80772600D01*
X155624550Y-80879535D01*
X155860867Y-80942028D01*
X156620395Y-80182500D01*
X156979605Y-80182500D01*
X157739133Y-80942028D01*
X157975450Y-80879535D01*
X158088850Y-80636822D01*
X158152719Y-80376651D01*
X158164604Y-80109018D01*
X158124048Y-79844209D01*
X158032609Y-79592400D01*
X157975450Y-79485465D01*
X157739133Y-79422972D01*
X156979605Y-80182500D01*
X156620395Y-80182500D01*
X155860867Y-79422972D01*
X155624550Y-79485465D01*
X155511150Y-79728178D01*
X155447281Y-79988349D01*
X155435396Y-80255982D01*
X153158077Y-80255982D01*
X153164604Y-80109018D01*
X153124048Y-79844209D01*
X153032609Y-79592400D01*
X152975450Y-79485465D01*
X152739133Y-79422972D01*
X151979605Y-80182500D01*
X151620395Y-80182500D01*
X150860867Y-79422972D01*
X150624550Y-79485465D01*
X150511150Y-79728178D01*
X150447281Y-79988349D01*
X150435396Y-80255982D01*
X149330000Y-80255982D01*
X149330000Y-80247000D01*
X148067000Y-80247000D01*
X147813000Y-80247000D01*
X146550000Y-80247000D01*
X146507000Y-80247000D01*
X146507000Y-79315621D01*
X146499848Y-79243000D01*
X146550000Y-79243000D01*
X146550000Y-79993000D01*
X147813000Y-79993000D01*
X147813000Y-78145317D01*
X148067000Y-78145317D01*
X148067000Y-79993000D01*
X149330000Y-79993000D01*
X149330000Y-79243000D01*
X149278515Y-78974265D01*
X149175592Y-78720738D01*
X149025186Y-78492161D01*
X148833077Y-78297319D01*
X148606647Y-78143700D01*
X148354598Y-78037207D01*
X148281971Y-78022723D01*
X148067000Y-78145317D01*
X147813000Y-78145317D01*
X147598029Y-78022723D01*
X147525402Y-78037207D01*
X147273353Y-78143700D01*
X147046923Y-78297319D01*
X146854814Y-78492161D01*
X146704408Y-78720738D01*
X146601485Y-78974265D01*
X146550000Y-79243000D01*
X146499848Y-79243000D01*
X146490982Y-79152990D01*
X146427683Y-78944320D01*
X146324890Y-78752008D01*
X146186554Y-78583446D01*
X146017992Y-78445110D01*
X145825679Y-78342317D01*
X145617009Y-78279018D01*
X145400000Y-78257644D01*
X145182990Y-78279018D01*
X144974320Y-78342317D01*
X144782008Y-78445110D01*
X144613446Y-78583446D01*
X144475110Y-78752008D01*
X144372317Y-78944321D01*
X144309018Y-79152991D01*
X144293000Y-79315622D01*
X141327000Y-79315622D01*
X141327000Y-77609500D01*
X149565000Y-77609500D01*
X149565000Y-77959500D01*
X149613507Y-78197996D01*
X149707610Y-78422446D01*
X149843693Y-78624225D01*
X150016526Y-78795578D01*
X150219467Y-78929921D01*
X150444718Y-79022091D01*
X150482391Y-79025962D01*
X150673000Y-78901231D01*
X150673000Y-77609500D01*
X150927000Y-77609500D01*
X150927000Y-78901231D01*
X151100862Y-79015003D01*
X151040472Y-79243367D01*
X151800000Y-80002895D01*
X152559528Y-79243367D01*
X156040472Y-79243367D01*
X156800000Y-80002895D01*
X157559528Y-79243367D01*
X157499138Y-79015003D01*
X157673000Y-78901231D01*
X157673000Y-77609500D01*
X157927000Y-77609500D01*
X157927000Y-78901231D01*
X158117609Y-79025962D01*
X158155282Y-79022091D01*
X158380533Y-78929921D01*
X158583474Y-78795578D01*
X158756307Y-78624225D01*
X158892390Y-78422446D01*
X158986493Y-78197996D01*
X159035000Y-77959500D01*
X159035000Y-77609500D01*
X157927000Y-77609500D01*
X157673000Y-77609500D01*
X156565000Y-77609500D01*
X156565000Y-77959500D01*
X156613507Y-78197996D01*
X156707610Y-78422446D01*
X156843693Y-78624225D01*
X157016526Y-78795578D01*
X157111836Y-78858671D01*
X156994151Y-78829781D01*
X156726518Y-78817896D01*
X156461709Y-78858452D01*
X156209900Y-78949891D01*
X156102965Y-79007050D01*
X156040472Y-79243367D01*
X152559528Y-79243367D01*
X152497035Y-79007050D01*
X152254322Y-78893650D01*
X151994151Y-78829781D01*
X151726518Y-78817896D01*
X151496558Y-78853115D01*
X151583474Y-78795578D01*
X151756307Y-78624225D01*
X151892390Y-78422446D01*
X151986493Y-78197996D01*
X152035000Y-77959500D01*
X152035000Y-77609500D01*
X150927000Y-77609500D01*
X150673000Y-77609500D01*
X149565000Y-77609500D01*
X141327000Y-77609500D01*
X141327000Y-76399980D01*
X141554374Y-75945232D01*
X141752606Y-75747000D01*
X149397394Y-75747000D01*
X149917748Y-76267354D01*
X149843693Y-76340775D01*
X149707610Y-76542554D01*
X149613507Y-76767004D01*
X149565000Y-77005500D01*
X149565000Y-77355500D01*
X150673000Y-77355500D01*
X150673000Y-77335500D01*
X150927000Y-77335500D01*
X150927000Y-77355500D01*
X152035000Y-77355500D01*
X152035000Y-77005500D01*
X151986493Y-76767004D01*
X151925699Y-76622000D01*
X156674301Y-76622000D01*
X156613507Y-76767004D01*
X156565000Y-77005500D01*
X156565000Y-77355500D01*
X157673000Y-77355500D01*
X157673000Y-77335500D01*
X157927000Y-77335500D01*
X157927000Y-77355500D01*
X159035000Y-77355500D01*
X159035000Y-77005500D01*
X158986493Y-76767004D01*
X158892390Y-76542554D01*
X158756307Y-76340775D01*
X158670852Y-76256052D01*
X159143647Y-75605959D01*
X159227606Y-75522000D01*
X165980342Y-75522000D01*
X166193471Y-75542898D01*
G37*
X166193471Y-75542898D02*
X166365984Y-75594982D01*
X166464465Y-75644222D01*
X166551216Y-75690349D01*
X166701866Y-75813216D01*
X166825781Y-75963002D01*
X166918242Y-76134006D01*
X166975727Y-76319711D01*
X166998000Y-76531620D01*
X166998001Y-112200332D01*
X166977102Y-112413471D01*
X166920915Y-112599574D01*
X166829650Y-112771218D01*
X166706783Y-112921867D01*
X166556995Y-113045782D01*
X166465334Y-113095343D01*
X166369041Y-113143489D01*
X166200288Y-113195727D01*
X165988380Y-113218000D01*
X142319658Y-113218000D01*
X142145906Y-113200963D01*
X141775232Y-113015626D01*
X141400779Y-112641173D01*
X141381759Y-112605996D01*
X141327000Y-112429098D01*
X141327000Y-111845000D01*
X145096928Y-111845000D01*
X145109188Y-111969482D01*
X145145498Y-112089180D01*
X145204463Y-112199494D01*
X145283815Y-112296185D01*
X145380506Y-112375537D01*
X145490820Y-112434502D01*
X145610518Y-112470812D01*
X145735000Y-112483072D01*
X146374250Y-112480000D01*
X146533000Y-112321250D01*
X146533000Y-111047000D01*
X145258750Y-111047000D01*
X145100000Y-111205750D01*
X145096928Y-111845000D01*
X141327000Y-111845000D01*
X141327000Y-109995000D01*
X145096928Y-109995000D01*
X145100000Y-110634250D01*
X145258750Y-110793000D01*
X146533000Y-110793000D01*
X146533000Y-109518750D01*
X146374250Y-109360000D01*
X145735000Y-109356928D01*
X145610518Y-109369188D01*
X145490820Y-109405498D01*
X145380506Y-109464463D01*
X145283815Y-109543815D01*
X145204463Y-109640506D01*
X145145498Y-109750820D01*
X145109188Y-109870518D01*
X145096928Y-109995000D01*
X141327000Y-109995000D01*
X141327000Y-103970000D01*
X141461928Y-103970000D01*
X141474188Y-104094482D01*
X141510498Y-104214180D01*
X141569463Y-104324494D01*
X141648815Y-104421185D01*
X141745506Y-104500537D01*
X141855820Y-104559502D01*
X141975518Y-104595812D01*
X142100000Y-104608072D01*
X142664250Y-104605000D01*
X142823000Y-104446250D01*
X142823000Y-103247000D01*
X143077000Y-103247000D01*
X143077000Y-104446250D01*
X143235750Y-104605000D01*
X143800000Y-104608072D01*
X143924482Y-104595812D01*
X144044180Y-104559502D01*
X144154494Y-104500537D01*
X144251185Y-104421185D01*
X144330537Y-104324494D01*
X144389502Y-104214180D01*
X144425812Y-104094482D01*
X144438072Y-103970000D01*
X144435000Y-103405750D01*
X144276250Y-103247000D01*
X143077000Y-103247000D01*
X142823000Y-103247000D01*
X141623750Y-103247000D01*
X141465000Y-103405750D01*
X141461928Y-103970000D01*
X141327000Y-103970000D01*
X141327000Y-98830581D01*
X142163267Y-99666849D01*
X142016346Y-99813770D01*
X141884801Y-100010639D01*
X141794192Y-100229390D01*
X141748000Y-100461613D01*
X141748000Y-100698387D01*
X141794192Y-100930610D01*
X141884801Y-101149361D01*
X142016346Y-101346230D01*
X142183770Y-101513654D01*
X142362920Y-101633359D01*
X142100000Y-101631928D01*
X141975518Y-101644188D01*
X141855820Y-101680498D01*
X141745506Y-101739463D01*
X141648815Y-101818815D01*
X141569463Y-101915506D01*
X141510498Y-102025820D01*
X141474188Y-102145518D01*
X141461928Y-102270000D01*
X141465000Y-102834250D01*
X141623750Y-102993000D01*
X142823000Y-102993000D01*
X142823000Y-102973000D01*
X143077000Y-102973000D01*
X143077000Y-102993000D01*
X144276250Y-102993000D01*
X144435000Y-102834250D01*
X144438072Y-102270000D01*
X144425812Y-102145518D01*
X144389502Y-102025820D01*
X144330537Y-101915506D01*
X144251185Y-101818815D01*
X144154494Y-101739463D01*
X144044180Y-101680498D01*
X143924482Y-101644188D01*
X143800000Y-101631928D01*
X143537080Y-101633359D01*
X143716230Y-101513654D01*
X143883654Y-101346230D01*
X144006900Y-101161781D01*
X144033586Y-101226206D01*
X144115883Y-101349372D01*
X144220628Y-101454117D01*
X144343794Y-101536414D01*
X144480650Y-101593101D01*
X144625934Y-101622000D01*
X144774066Y-101622000D01*
X144919350Y-101593101D01*
X145056206Y-101536414D01*
X145179372Y-101454117D01*
X145284117Y-101349372D01*
X145366414Y-101226206D01*
X145423101Y-101089350D01*
X145452000Y-100944066D01*
X145452000Y-100795934D01*
X145423101Y-100650650D01*
X145366414Y-100513794D01*
X145284117Y-100390628D01*
X145179372Y-100285883D01*
X145056206Y-100203586D01*
X144919350Y-100146899D01*
X144774066Y-100118000D01*
X144625934Y-100118000D01*
X144623136Y-100118557D01*
X144602001Y-100097422D01*
X144602001Y-99818416D01*
X144604307Y-99795001D01*
X144602001Y-99771586D01*
X144602001Y-99771578D01*
X144595098Y-99701493D01*
X144567823Y-99611578D01*
X144523530Y-99528712D01*
X144478853Y-99474273D01*
X144478851Y-99474271D01*
X144463922Y-99456080D01*
X144445730Y-99441150D01*
X143962857Y-98958278D01*
X143947923Y-98940081D01*
X143875291Y-98880473D01*
X143832359Y-98857525D01*
X143883654Y-98806230D01*
X144015199Y-98609361D01*
X144105808Y-98390610D01*
X144152000Y-98158387D01*
X144152000Y-97921613D01*
X144105808Y-97689390D01*
X144015199Y-97470639D01*
X143883654Y-97273770D01*
X143716230Y-97106346D01*
X143519361Y-96974801D01*
X143300610Y-96884192D01*
X143068387Y-96838000D01*
X142831613Y-96838000D01*
X142599390Y-96884192D01*
X142380639Y-96974801D01*
X142183770Y-97106346D01*
X142016346Y-97273770D01*
X141884801Y-97470639D01*
X141794192Y-97689390D01*
X141752010Y-97901453D01*
X141752010Y-95638547D01*
X141794192Y-95850610D01*
X141884801Y-96069361D01*
X142016346Y-96266230D01*
X142183770Y-96433654D01*
X142380639Y-96565199D01*
X142599390Y-96655808D01*
X142831613Y-96702000D01*
X143068387Y-96702000D01*
X143300610Y-96655808D01*
X143342972Y-96638261D01*
X145897999Y-99193290D01*
X145898000Y-108119108D01*
X145895450Y-108144999D01*
X145905625Y-108248308D01*
X145935760Y-108347648D01*
X145935761Y-108347649D01*
X145984696Y-108439201D01*
X146050552Y-108519447D01*
X146070661Y-108535950D01*
X146920230Y-109385520D01*
X146787000Y-109518750D01*
X146787000Y-110793000D01*
X146807000Y-110793000D01*
X146807000Y-111047000D01*
X146787000Y-111047000D01*
X146787000Y-112321250D01*
X146945750Y-112480000D01*
X147585000Y-112483072D01*
X147709482Y-112470812D01*
X147829180Y-112434502D01*
X147939494Y-112375537D01*
X148036185Y-112296185D01*
X148115537Y-112199494D01*
X148174502Y-112089180D01*
X148210812Y-111969482D01*
X148223072Y-111845000D01*
X148222802Y-111788753D01*
X148345960Y-111911911D01*
X148555114Y-112051663D01*
X148787513Y-112147926D01*
X149034226Y-112197000D01*
X149285774Y-112197000D01*
X149532487Y-112147926D01*
X149764886Y-112051663D01*
X149974040Y-111911911D01*
X150151911Y-111734040D01*
X150291663Y-111524886D01*
X150387926Y-111292487D01*
X150410000Y-111181513D01*
X150432074Y-111292487D01*
X150528337Y-111524886D01*
X150668089Y-111734040D01*
X150845960Y-111911911D01*
X151055114Y-112051663D01*
X151287513Y-112147926D01*
X151534226Y-112197000D01*
X151785774Y-112197000D01*
X152032487Y-112147926D01*
X152264886Y-112051663D01*
X152474040Y-111911911D01*
X152651911Y-111734040D01*
X152791663Y-111524886D01*
X152887926Y-111292487D01*
X152937000Y-111045774D01*
X152937000Y-110794226D01*
X152887926Y-110547513D01*
X152791663Y-110315114D01*
X152651911Y-110105960D01*
X152540951Y-109995000D01*
X155281297Y-109995000D01*
X155281297Y-111845000D01*
X155288093Y-111914004D01*
X155308221Y-111980356D01*
X155340907Y-112041507D01*
X155384894Y-112095106D01*
X155438493Y-112139093D01*
X155499644Y-112171779D01*
X155565996Y-112191907D01*
X155635000Y-112198703D01*
X157485000Y-112198703D01*
X157554004Y-112191907D01*
X157620356Y-112171779D01*
X157681507Y-112139093D01*
X157735106Y-112095106D01*
X157779093Y-112041507D01*
X157811779Y-111980356D01*
X157831907Y-111914004D01*
X157838703Y-111845000D01*
X157838703Y-111308491D01*
X157928337Y-111524886D01*
X158068089Y-111734040D01*
X158245960Y-111911911D01*
X158455114Y-112051663D01*
X158687513Y-112147926D01*
X158934226Y-112197000D01*
X159185774Y-112197000D01*
X159432487Y-112147926D01*
X159664886Y-112051663D01*
X159739336Y-112001917D01*
X160657688Y-112001917D01*
X160744393Y-112258653D01*
X161021223Y-112392048D01*
X161318757Y-112468873D01*
X161625562Y-112486176D01*
X161929848Y-112443292D01*
X162219921Y-112341868D01*
X162375607Y-112258653D01*
X162462312Y-112001917D01*
X161560000Y-111099605D01*
X160657688Y-112001917D01*
X159739336Y-112001917D01*
X159874040Y-111911911D01*
X160051911Y-111734040D01*
X160145580Y-111593855D01*
X160221347Y-111735607D01*
X160478083Y-111822312D01*
X161380395Y-110920000D01*
X161739605Y-110920000D01*
X162641917Y-111822312D01*
X162898653Y-111735607D01*
X163032048Y-111458777D01*
X163108873Y-111161243D01*
X163126176Y-110854438D01*
X163083292Y-110550152D01*
X162981868Y-110260079D01*
X162898653Y-110104393D01*
X162641917Y-110017688D01*
X161739605Y-110920000D01*
X161380395Y-110920000D01*
X160478083Y-110017688D01*
X160221347Y-110104393D01*
X160149915Y-110252633D01*
X160051911Y-110105960D01*
X159874040Y-109928089D01*
X159739337Y-109838083D01*
X160657688Y-109838083D01*
X161560000Y-110740395D01*
X162462312Y-109838083D01*
X162375607Y-109581347D01*
X162098777Y-109447952D01*
X161801243Y-109371127D01*
X161494438Y-109353824D01*
X161190152Y-109396708D01*
X160900079Y-109498132D01*
X160744393Y-109581347D01*
X160657688Y-109838083D01*
X159739337Y-109838083D01*
X159664886Y-109788337D01*
X159432487Y-109692074D01*
X159185774Y-109643000D01*
X158934226Y-109643000D01*
X158687513Y-109692074D01*
X158455114Y-109788337D01*
X158245960Y-109928089D01*
X158068089Y-110105960D01*
X157928337Y-110315114D01*
X157838703Y-110531509D01*
X157838703Y-109995000D01*
X157831907Y-109925996D01*
X157811779Y-109859644D01*
X157779093Y-109798493D01*
X157735106Y-109744894D01*
X157681507Y-109700907D01*
X157620356Y-109668221D01*
X157554004Y-109648093D01*
X157485000Y-109641297D01*
X155635000Y-109641297D01*
X155565996Y-109648093D01*
X155499644Y-109668221D01*
X155438493Y-109700907D01*
X155384894Y-109744894D01*
X155340907Y-109798493D01*
X155308221Y-109859644D01*
X155288093Y-109925996D01*
X155281297Y-109995000D01*
X152540951Y-109995000D01*
X152474040Y-109928089D01*
X152264886Y-109788337D01*
X152032487Y-109692074D01*
X151785774Y-109643000D01*
X151534226Y-109643000D01*
X151287513Y-109692074D01*
X151055114Y-109788337D01*
X150845960Y-109928089D01*
X150668089Y-110105960D01*
X150528337Y-110315114D01*
X150432074Y-110547513D01*
X150410000Y-110658487D01*
X150387926Y-110547513D01*
X150291663Y-110315114D01*
X150151911Y-110105960D01*
X149974040Y-109928089D01*
X149764886Y-109788337D01*
X149532487Y-109692074D01*
X149285774Y-109643000D01*
X149034226Y-109643000D01*
X148787513Y-109692074D01*
X148737910Y-109712620D01*
X146951999Y-107926710D01*
X146951999Y-105331233D01*
X146980650Y-105343101D01*
X147125934Y-105372000D01*
X147274066Y-105372000D01*
X147419350Y-105343101D01*
X147556206Y-105286414D01*
X147679372Y-105204117D01*
X147784117Y-105099372D01*
X147866414Y-104976206D01*
X147923101Y-104839350D01*
X147952000Y-104694066D01*
X147952000Y-104545934D01*
X147923101Y-104400650D01*
X147866414Y-104263794D01*
X147784117Y-104140628D01*
X147679372Y-104035883D01*
X147677000Y-104034298D01*
X147677000Y-101133517D01*
X147763175Y-101191097D01*
X147900031Y-101247784D01*
X148045315Y-101276683D01*
X148193447Y-101276683D01*
X148338731Y-101247784D01*
X148473001Y-101192168D01*
X148473000Y-107596585D01*
X148470694Y-107620000D01*
X148473000Y-107643415D01*
X148473000Y-107643422D01*
X148479903Y-107713507D01*
X148507178Y-107803422D01*
X148551471Y-107886289D01*
X148611079Y-107958921D01*
X148629276Y-107973855D01*
X149198557Y-108543136D01*
X149198000Y-108545934D01*
X149198000Y-108694066D01*
X149226899Y-108839350D01*
X149283586Y-108976206D01*
X149365883Y-109099372D01*
X149470628Y-109204117D01*
X149593794Y-109286414D01*
X149730650Y-109343101D01*
X149875934Y-109372000D01*
X150024066Y-109372000D01*
X150169350Y-109343101D01*
X150306206Y-109286414D01*
X150429372Y-109204117D01*
X150534117Y-109099372D01*
X150616414Y-108976206D01*
X150673101Y-108839350D01*
X150702000Y-108694066D01*
X150702000Y-108545934D01*
X150673101Y-108400650D01*
X150616414Y-108263794D01*
X150534117Y-108140628D01*
X150429372Y-108035883D01*
X150306206Y-107953586D01*
X150169350Y-107896899D01*
X150024066Y-107868000D01*
X149875934Y-107868000D01*
X149873136Y-107868557D01*
X149427000Y-107422421D01*
X149427000Y-98705702D01*
X149429372Y-98704117D01*
X149534117Y-98599372D01*
X149616414Y-98476206D01*
X149673101Y-98339350D01*
X149702000Y-98194066D01*
X149702000Y-98045934D01*
X149673101Y-97900650D01*
X149616414Y-97763794D01*
X149534117Y-97640628D01*
X149447702Y-97554213D01*
X151922577Y-95079338D01*
X151947933Y-95140553D01*
X152030230Y-95263719D01*
X152134975Y-95368464D01*
X152137347Y-95370049D01*
X152137347Y-95373454D01*
X152137348Y-95373464D01*
X152137348Y-97318713D01*
X152062368Y-97287656D01*
X151917084Y-97258757D01*
X151768952Y-97258757D01*
X151623668Y-97287656D01*
X151486812Y-97344343D01*
X151363646Y-97426640D01*
X151258901Y-97531385D01*
X151176604Y-97654551D01*
X151119917Y-97791407D01*
X151091018Y-97936691D01*
X151091018Y-98017466D01*
X149849473Y-99259013D01*
X149829364Y-99275516D01*
X149773899Y-99343101D01*
X149763507Y-99355763D01*
X149714572Y-99447315D01*
X149684437Y-99546655D01*
X149674262Y-99649964D01*
X149676812Y-99675854D01*
X149676811Y-100807619D01*
X149619694Y-100864736D01*
X149537397Y-100987902D01*
X149480710Y-101124758D01*
X149451811Y-101270042D01*
X149451811Y-101418174D01*
X149480710Y-101563458D01*
X149537397Y-101700314D01*
X149619694Y-101823480D01*
X149724439Y-101928225D01*
X149847605Y-102010522D01*
X149984461Y-102067209D01*
X150129745Y-102096108D01*
X150277877Y-102096108D01*
X150423161Y-102067209D01*
X150560017Y-102010522D01*
X150683183Y-101928225D01*
X150787928Y-101823480D01*
X150870225Y-101700314D01*
X150926912Y-101563458D01*
X150955811Y-101418174D01*
X150955811Y-101270042D01*
X150926912Y-101124758D01*
X150870225Y-100987902D01*
X150787928Y-100864736D01*
X150730811Y-100807619D01*
X150730811Y-99868253D01*
X151836309Y-98762757D01*
X151917084Y-98762757D01*
X152062368Y-98733858D01*
X152137348Y-98702801D01*
X152137347Y-102258073D01*
X150526864Y-103868557D01*
X150524066Y-103868000D01*
X150375934Y-103868000D01*
X150230650Y-103896899D01*
X150093794Y-103953586D01*
X149970628Y-104035883D01*
X149865883Y-104140628D01*
X149783586Y-104263794D01*
X149726899Y-104400650D01*
X149698000Y-104545934D01*
X149698000Y-104694066D01*
X149726899Y-104839350D01*
X149783586Y-104976206D01*
X149865883Y-105099372D01*
X149970628Y-105204117D01*
X150093794Y-105286414D01*
X150230650Y-105343101D01*
X150375934Y-105372000D01*
X150524066Y-105372000D01*
X150669350Y-105343101D01*
X150806206Y-105286414D01*
X150929372Y-105204117D01*
X151034117Y-105099372D01*
X151116414Y-104976206D01*
X151173101Y-104839350D01*
X151202000Y-104694066D01*
X151202000Y-104545934D01*
X151201443Y-104543136D01*
X152935076Y-102809504D01*
X152953268Y-102794574D01*
X153012876Y-102721942D01*
X153057169Y-102639076D01*
X153084444Y-102549161D01*
X153087316Y-102520000D01*
X163996297Y-102520000D01*
X163996297Y-104220000D01*
X164003093Y-104289004D01*
X164023221Y-104355356D01*
X164055907Y-104416507D01*
X164099894Y-104470106D01*
X164153493Y-104514093D01*
X164214644Y-104546779D01*
X164280996Y-104566907D01*
X164350000Y-104573703D01*
X166050000Y-104573703D01*
X166119004Y-104566907D01*
X166185356Y-104546779D01*
X166246507Y-104514093D01*
X166300106Y-104470106D01*
X166344093Y-104416507D01*
X166376779Y-104355356D01*
X166396907Y-104289004D01*
X166403703Y-104220000D01*
X166403703Y-102520000D01*
X166396907Y-102450996D01*
X166376779Y-102384644D01*
X166344093Y-102323493D01*
X166300106Y-102269894D01*
X166246507Y-102225907D01*
X166185356Y-102193221D01*
X166119004Y-102173093D01*
X166050000Y-102166297D01*
X164350000Y-102166297D01*
X164280996Y-102173093D01*
X164214644Y-102193221D01*
X164153493Y-102225907D01*
X164099894Y-102269894D01*
X164055907Y-102323493D01*
X164023221Y-102384644D01*
X164003093Y-102450996D01*
X163996297Y-102520000D01*
X153087316Y-102520000D01*
X153091347Y-102479076D01*
X153091347Y-102479068D01*
X153093653Y-102455653D01*
X153091347Y-102432238D01*
X153091347Y-95985270D01*
X158239981Y-101133905D01*
X158254141Y-101151159D01*
X158322967Y-101207643D01*
X158398066Y-101247784D01*
X158401490Y-101249614D01*
X158486692Y-101275460D01*
X158575300Y-101284187D01*
X158597505Y-101282000D01*
X164086189Y-101282000D01*
X164134801Y-101399361D01*
X164266346Y-101596230D01*
X164433770Y-101763654D01*
X164630639Y-101895199D01*
X164849390Y-101985808D01*
X165081613Y-102032000D01*
X165318387Y-102032000D01*
X165550610Y-101985808D01*
X165769361Y-101895199D01*
X165966230Y-101763654D01*
X166133654Y-101596230D01*
X166265199Y-101399361D01*
X166355808Y-101180610D01*
X166402000Y-100948387D01*
X166402000Y-100711613D01*
X166355808Y-100479390D01*
X166265199Y-100260639D01*
X166133654Y-100063770D01*
X165966230Y-99896346D01*
X165769361Y-99764801D01*
X165550610Y-99674192D01*
X165318387Y-99628000D01*
X165081613Y-99628000D01*
X164849390Y-99674192D01*
X164630639Y-99764801D01*
X164433770Y-99896346D01*
X164266346Y-100063770D01*
X164134801Y-100260639D01*
X164086189Y-100378000D01*
X158762524Y-100378000D01*
X157756524Y-99372000D01*
X157774066Y-99372000D01*
X157919350Y-99343101D01*
X158056206Y-99286414D01*
X158179372Y-99204117D01*
X158284117Y-99099372D01*
X158366414Y-98976206D01*
X158423101Y-98839350D01*
X158452000Y-98694066D01*
X158452000Y-98545934D01*
X158423101Y-98400650D01*
X158366414Y-98263794D01*
X158284117Y-98140628D01*
X158227000Y-98083511D01*
X158227000Y-97545934D01*
X161198000Y-97545934D01*
X161198000Y-97694066D01*
X161226899Y-97839350D01*
X161283586Y-97976206D01*
X161365883Y-98099372D01*
X161470628Y-98204117D01*
X161473001Y-98205702D01*
X161473001Y-98393423D01*
X161479904Y-98463508D01*
X161507179Y-98553423D01*
X161551472Y-98636289D01*
X161611080Y-98708921D01*
X161683712Y-98768529D01*
X161766578Y-98812822D01*
X161856493Y-98840097D01*
X161950000Y-98849307D01*
X162043508Y-98840097D01*
X162133423Y-98812822D01*
X162216289Y-98768529D01*
X162288921Y-98708921D01*
X162348529Y-98636289D01*
X162392822Y-98553423D01*
X162420097Y-98463508D01*
X162427000Y-98393423D01*
X162427000Y-98205702D01*
X162429372Y-98204117D01*
X162461876Y-98171613D01*
X163998000Y-98171613D01*
X163998000Y-98408387D01*
X164044192Y-98640610D01*
X164134801Y-98859361D01*
X164266346Y-99056230D01*
X164433770Y-99223654D01*
X164630639Y-99355199D01*
X164849390Y-99445808D01*
X165081613Y-99492000D01*
X165318387Y-99492000D01*
X165550610Y-99445808D01*
X165769361Y-99355199D01*
X165966230Y-99223654D01*
X166133654Y-99056230D01*
X166265199Y-98859361D01*
X166355808Y-98640610D01*
X166402000Y-98408387D01*
X166402000Y-98171613D01*
X166355808Y-97939390D01*
X166265199Y-97720639D01*
X166133654Y-97523770D01*
X165966230Y-97356346D01*
X165769361Y-97224801D01*
X165550610Y-97134192D01*
X165318387Y-97088000D01*
X165081613Y-97088000D01*
X164849390Y-97134192D01*
X164630639Y-97224801D01*
X164433770Y-97356346D01*
X164266346Y-97523770D01*
X164134801Y-97720639D01*
X164044192Y-97939390D01*
X163998000Y-98171613D01*
X162461876Y-98171613D01*
X162534117Y-98099372D01*
X162616414Y-97976206D01*
X162673101Y-97839350D01*
X162702000Y-97694066D01*
X162702000Y-97545934D01*
X162673101Y-97400650D01*
X162616414Y-97263794D01*
X162534117Y-97140628D01*
X162429372Y-97035883D01*
X162306206Y-96953586D01*
X162169350Y-96896899D01*
X162024066Y-96868000D01*
X161875934Y-96868000D01*
X161730650Y-96896899D01*
X161593794Y-96953586D01*
X161470628Y-97035883D01*
X161365883Y-97140628D01*
X161283586Y-97263794D01*
X161226899Y-97400650D01*
X161198000Y-97545934D01*
X158227000Y-97545934D01*
X158227000Y-96406489D01*
X158284117Y-96349372D01*
X158366414Y-96226206D01*
X158423101Y-96089350D01*
X158452000Y-95944066D01*
X158452000Y-95795934D01*
X158423101Y-95650650D01*
X158415216Y-95631613D01*
X163998000Y-95631613D01*
X163998000Y-95868387D01*
X164044192Y-96100610D01*
X164134801Y-96319361D01*
X164266346Y-96516230D01*
X164433770Y-96683654D01*
X164630639Y-96815199D01*
X164849390Y-96905808D01*
X165081613Y-96952000D01*
X165318387Y-96952000D01*
X165550610Y-96905808D01*
X165769361Y-96815199D01*
X165966230Y-96683654D01*
X166133654Y-96516230D01*
X166265199Y-96319361D01*
X166355808Y-96100610D01*
X166402000Y-95868387D01*
X166402000Y-95631613D01*
X166355808Y-95399390D01*
X166265199Y-95180639D01*
X166133654Y-94983770D01*
X165966230Y-94816346D01*
X165769361Y-94684801D01*
X165550610Y-94594192D01*
X165318387Y-94548000D01*
X165081613Y-94548000D01*
X164849390Y-94594192D01*
X164630639Y-94684801D01*
X164433770Y-94816346D01*
X164266346Y-94983770D01*
X164134801Y-95180639D01*
X164044192Y-95399390D01*
X163998000Y-95631613D01*
X158415216Y-95631613D01*
X158366414Y-95513794D01*
X158284117Y-95390628D01*
X158179372Y-95285883D01*
X158056206Y-95203586D01*
X157919350Y-95146899D01*
X157774066Y-95118000D01*
X157693290Y-95118000D01*
X156754948Y-94179659D01*
X156754948Y-93091613D01*
X163998000Y-93091613D01*
X163998000Y-93328387D01*
X164044192Y-93560610D01*
X164134801Y-93779361D01*
X164266346Y-93976230D01*
X164433770Y-94143654D01*
X164630639Y-94275199D01*
X164849390Y-94365808D01*
X165081613Y-94412000D01*
X165318387Y-94412000D01*
X165550610Y-94365808D01*
X165769361Y-94275199D01*
X165966230Y-94143654D01*
X166133654Y-93976230D01*
X166265199Y-93779361D01*
X166355808Y-93560610D01*
X166402000Y-93328387D01*
X166402000Y-93091613D01*
X166355808Y-92859390D01*
X166265199Y-92640639D01*
X166133654Y-92443770D01*
X165966230Y-92276346D01*
X165769361Y-92144801D01*
X165550610Y-92054192D01*
X165318387Y-92008000D01*
X165081613Y-92008000D01*
X164849390Y-92054192D01*
X164630639Y-92144801D01*
X164433770Y-92276346D01*
X164266346Y-92443770D01*
X164134801Y-92640639D01*
X164044192Y-92859390D01*
X163998000Y-93091613D01*
X156754948Y-93091613D01*
X156754948Y-92336411D01*
X157248359Y-91843000D01*
X157917028Y-91174332D01*
X157919372Y-91171988D01*
X158000148Y-91171988D01*
X158145432Y-91143089D01*
X158282288Y-91086402D01*
X158405454Y-91004105D01*
X158510199Y-90899360D01*
X158592496Y-90776194D01*
X158649183Y-90639338D01*
X158678082Y-90494054D01*
X158678082Y-90345922D01*
X158649183Y-90200638D01*
X158592496Y-90063782D01*
X158510199Y-89940616D01*
X158405454Y-89835871D01*
X158282288Y-89753574D01*
X158145432Y-89696887D01*
X158000148Y-89667988D01*
X157852016Y-89667988D01*
X157706732Y-89696887D01*
X157569876Y-89753574D01*
X157446710Y-89835871D01*
X157341965Y-89940616D01*
X157259668Y-90063782D01*
X157202981Y-90200638D01*
X157174082Y-90345922D01*
X157174082Y-90426698D01*
X157171738Y-90429042D01*
X156486593Y-91114188D01*
X155873609Y-91727172D01*
X155853501Y-91743674D01*
X155836999Y-91763782D01*
X155757781Y-91843000D01*
X155161230Y-91843000D01*
X155173101Y-91814340D01*
X155202000Y-91669056D01*
X155202000Y-91520924D01*
X155173101Y-91375640D01*
X155116414Y-91238784D01*
X155034117Y-91115618D01*
X154929372Y-91010873D01*
X154806206Y-90928576D01*
X154669350Y-90871889D01*
X154524066Y-90842990D01*
X154375934Y-90842990D01*
X154373136Y-90843547D01*
X154078865Y-90549276D01*
X154063931Y-90531079D01*
X153991299Y-90471471D01*
X153908433Y-90427178D01*
X153818518Y-90399903D01*
X153748433Y-90393000D01*
X153748425Y-90393000D01*
X153725010Y-90390694D01*
X153701595Y-90393000D01*
X152785702Y-90393000D01*
X152784117Y-90390628D01*
X152679372Y-90285883D01*
X152556206Y-90203586D01*
X152419350Y-90146899D01*
X152274066Y-90118000D01*
X152125934Y-90118000D01*
X151980650Y-90146899D01*
X151843794Y-90203586D01*
X151801263Y-90232004D01*
X151778866Y-90119403D01*
X151733486Y-90009846D01*
X151677000Y-89925309D01*
X151677000Y-89846578D01*
X151670097Y-89776492D01*
X151642822Y-89686577D01*
X151598529Y-89603711D01*
X151538921Y-89531079D01*
X151466289Y-89471471D01*
X151383423Y-89427178D01*
X151293508Y-89399903D01*
X151200000Y-89390693D01*
X151106493Y-89399903D01*
X151016578Y-89427178D01*
X150933712Y-89471471D01*
X150861080Y-89531079D01*
X150801472Y-89603711D01*
X150757179Y-89686577D01*
X150729904Y-89776492D01*
X150723000Y-89846577D01*
X150723000Y-89925309D01*
X150666514Y-90009846D01*
X150621134Y-90119403D01*
X150598000Y-90235708D01*
X150598000Y-90354292D01*
X150621134Y-90470597D01*
X150666514Y-90580154D01*
X150732396Y-90678753D01*
X150816247Y-90762604D01*
X150914846Y-90828486D01*
X151024403Y-90873866D01*
X151140708Y-90897000D01*
X151259292Y-90897000D01*
X151375597Y-90873866D01*
X151448000Y-90843876D01*
X151448000Y-90944066D01*
X151476899Y-91089350D01*
X151533586Y-91226206D01*
X151615883Y-91349372D01*
X151720628Y-91454117D01*
X151843794Y-91536414D01*
X151980650Y-91593101D01*
X152125934Y-91622000D01*
X152274066Y-91622000D01*
X152419350Y-91593101D01*
X152556206Y-91536414D01*
X152679372Y-91454117D01*
X152784117Y-91349372D01*
X152785702Y-91347000D01*
X153527431Y-91347000D01*
X153698557Y-91518126D01*
X153698000Y-91520924D01*
X153698000Y-91669056D01*
X153726899Y-91814340D01*
X153738770Y-91843000D01*
X150196873Y-91843000D01*
X147928531Y-89595406D01*
X147994202Y-89560304D01*
X148074448Y-89494448D01*
X148090955Y-89474334D01*
X149226740Y-88338550D01*
X149226899Y-88339350D01*
X149283586Y-88476206D01*
X149365883Y-88599372D01*
X149470628Y-88704117D01*
X149593794Y-88786414D01*
X149730650Y-88843101D01*
X149875934Y-88872000D01*
X149956710Y-88872000D01*
X150181707Y-89096998D01*
X150198206Y-89117102D01*
X150278452Y-89182958D01*
X150370004Y-89231893D01*
X150469344Y-89262028D01*
X150572654Y-89272203D01*
X150598535Y-89269654D01*
X157051465Y-89269654D01*
X157077346Y-89272203D01*
X157103227Y-89269654D01*
X157180656Y-89262028D01*
X157279996Y-89231893D01*
X157371548Y-89182958D01*
X157451794Y-89117102D01*
X157468301Y-89096988D01*
X158078399Y-88486890D01*
X163758524Y-88486890D01*
X163803175Y-88634099D01*
X163928359Y-88896920D01*
X164102412Y-89130269D01*
X164318645Y-89325178D01*
X164568748Y-89474157D01*
X164771989Y-89546252D01*
X164630639Y-89604801D01*
X164433770Y-89736346D01*
X164266346Y-89903770D01*
X164134801Y-90100639D01*
X164044192Y-90319390D01*
X163998000Y-90551613D01*
X163998000Y-90788387D01*
X164044192Y-91020610D01*
X164134801Y-91239361D01*
X164266346Y-91436230D01*
X164433770Y-91603654D01*
X164630639Y-91735199D01*
X164849390Y-91825808D01*
X165081613Y-91872000D01*
X165318387Y-91872000D01*
X165550610Y-91825808D01*
X165769361Y-91735199D01*
X165966230Y-91603654D01*
X166133654Y-91436230D01*
X166265199Y-91239361D01*
X166355808Y-91020610D01*
X166402000Y-90788387D01*
X166402000Y-90551613D01*
X166355808Y-90319390D01*
X166265199Y-90100639D01*
X166133654Y-89903770D01*
X165966230Y-89736346D01*
X165769361Y-89604801D01*
X165628011Y-89546252D01*
X165831252Y-89474157D01*
X166081355Y-89325178D01*
X166297588Y-89130269D01*
X166471641Y-88896920D01*
X166596825Y-88634099D01*
X166641476Y-88486890D01*
X166520155Y-88257000D01*
X165327000Y-88257000D01*
X165327000Y-88277000D01*
X165073000Y-88277000D01*
X165073000Y-88257000D01*
X163879845Y-88257000D01*
X163758524Y-88486890D01*
X158078399Y-88486890D01*
X158792179Y-87773110D01*
X163758524Y-87773110D01*
X163879845Y-88003000D01*
X165073000Y-88003000D01*
X165073000Y-87983000D01*
X165327000Y-87983000D01*
X165327000Y-88003000D01*
X166520155Y-88003000D01*
X166641476Y-87773110D01*
X166596825Y-87625901D01*
X166471641Y-87363080D01*
X166297588Y-87129731D01*
X166081355Y-86934822D01*
X165831252Y-86785843D01*
X165628011Y-86713748D01*
X165769361Y-86655199D01*
X165966230Y-86523654D01*
X166133654Y-86356230D01*
X166265199Y-86159361D01*
X166355808Y-85940610D01*
X166402000Y-85708387D01*
X166402000Y-85471613D01*
X166355808Y-85239390D01*
X166265199Y-85020639D01*
X166133654Y-84823770D01*
X165966230Y-84656346D01*
X165769361Y-84524801D01*
X165550610Y-84434192D01*
X165318387Y-84388000D01*
X165081613Y-84388000D01*
X164849390Y-84434192D01*
X164630639Y-84524801D01*
X164433770Y-84656346D01*
X164266346Y-84823770D01*
X164134801Y-85020639D01*
X164044192Y-85239390D01*
X163998000Y-85471613D01*
X163998000Y-85708387D01*
X164044192Y-85940610D01*
X164134801Y-86159361D01*
X164266346Y-86356230D01*
X164433770Y-86523654D01*
X164630639Y-86655199D01*
X164771989Y-86713748D01*
X164568748Y-86785843D01*
X164318645Y-86934822D01*
X164102412Y-87129731D01*
X163928359Y-87363080D01*
X163803175Y-87625901D01*
X163758524Y-87773110D01*
X158792179Y-87773110D01*
X159654345Y-86910945D01*
X159674449Y-86894447D01*
X159740305Y-86814201D01*
X159789240Y-86722649D01*
X159819375Y-86623309D01*
X159827001Y-86545880D01*
X159829550Y-86519999D01*
X159827001Y-86494118D01*
X159827001Y-85361470D01*
X159919350Y-85343101D01*
X160056206Y-85286414D01*
X160179372Y-85204117D01*
X160284117Y-85099372D01*
X160366414Y-84976206D01*
X160423101Y-84839350D01*
X160452000Y-84694066D01*
X160452000Y-84545934D01*
X160423101Y-84400650D01*
X160366414Y-84263794D01*
X160284117Y-84140628D01*
X160179372Y-84035883D01*
X160056206Y-83953586D01*
X159919350Y-83896899D01*
X159774066Y-83868000D01*
X159625934Y-83868000D01*
X159480650Y-83896899D01*
X159343794Y-83953586D01*
X159220628Y-84035883D01*
X159115883Y-84140628D01*
X159033586Y-84263794D01*
X158976899Y-84400650D01*
X158948000Y-84545934D01*
X158948000Y-84626711D01*
X158945667Y-84629044D01*
X158925553Y-84645551D01*
X158859697Y-84725797D01*
X158838319Y-84765794D01*
X158810762Y-84817350D01*
X158780627Y-84916690D01*
X158770452Y-85019999D01*
X158773001Y-85045880D01*
X158773002Y-86301707D01*
X156859057Y-88215654D01*
X154758886Y-88215654D01*
X154770754Y-88187003D01*
X154799653Y-88041719D01*
X154799653Y-87893587D01*
X154770754Y-87748303D01*
X154714067Y-87611447D01*
X154631770Y-87488281D01*
X154527025Y-87383536D01*
X154524653Y-87381951D01*
X154524653Y-86694926D01*
X156098136Y-85121443D01*
X156100934Y-85122000D01*
X156249066Y-85122000D01*
X156394350Y-85093101D01*
X156531206Y-85036414D01*
X156654372Y-84954117D01*
X156759117Y-84849372D01*
X156841414Y-84726206D01*
X156898101Y-84589350D01*
X156927000Y-84444066D01*
X156927000Y-84295934D01*
X156898101Y-84150650D01*
X156841414Y-84013794D01*
X156759117Y-83890628D01*
X156654372Y-83785883D01*
X156531206Y-83703586D01*
X156394350Y-83646899D01*
X156249066Y-83618000D01*
X156100934Y-83618000D01*
X155955650Y-83646899D01*
X155818794Y-83703586D01*
X155695628Y-83785883D01*
X155590883Y-83890628D01*
X155508586Y-84013794D01*
X155451899Y-84150650D01*
X155423000Y-84295934D01*
X155423000Y-84444066D01*
X155423557Y-84446864D01*
X153726924Y-86143497D01*
X153708733Y-86158426D01*
X153693804Y-86176617D01*
X153693801Y-86176620D01*
X153685630Y-86186577D01*
X153649125Y-86231058D01*
X153642016Y-86244358D01*
X153604831Y-86313925D01*
X153577556Y-86403840D01*
X153568347Y-86497347D01*
X153570654Y-86520772D01*
X153570654Y-86816074D01*
X153399912Y-86645333D01*
X153423101Y-86589350D01*
X153452000Y-86444066D01*
X153452000Y-86295934D01*
X153423101Y-86150650D01*
X153366414Y-86013794D01*
X153284117Y-85890628D01*
X153179372Y-85785883D01*
X153056206Y-85703586D01*
X152919350Y-85646899D01*
X152774066Y-85618000D01*
X152697290Y-85618000D01*
X153193290Y-85122000D01*
X153274066Y-85122000D01*
X153419350Y-85093101D01*
X153556206Y-85036414D01*
X153679372Y-84954117D01*
X153784117Y-84849372D01*
X153866414Y-84726206D01*
X153923101Y-84589350D01*
X153952000Y-84444066D01*
X153952000Y-84295934D01*
X153923101Y-84150650D01*
X153866414Y-84013794D01*
X153784117Y-83890628D01*
X153679372Y-83785883D01*
X153556206Y-83703586D01*
X153419350Y-83646899D01*
X153274066Y-83618000D01*
X153125934Y-83618000D01*
X152980650Y-83646899D01*
X152843794Y-83703586D01*
X152720628Y-83785883D01*
X152615883Y-83890628D01*
X152533586Y-84013794D01*
X152476899Y-84150650D01*
X152448000Y-84295934D01*
X152448000Y-84376710D01*
X151706710Y-85118001D01*
X151200880Y-85118001D01*
X151174999Y-85115452D01*
X151149118Y-85118001D01*
X151071689Y-85125627D01*
X150972349Y-85155762D01*
X150880797Y-85204697D01*
X150800551Y-85270553D01*
X150784053Y-85290656D01*
X147481711Y-88593000D01*
X146919522Y-88593000D01*
X145977119Y-87643058D01*
X146586943Y-87643058D01*
X146605232Y-87670430D01*
X146709977Y-87775175D01*
X146833143Y-87857472D01*
X146969999Y-87914159D01*
X147115283Y-87943058D01*
X147263415Y-87943058D01*
X147408699Y-87914159D01*
X147545555Y-87857472D01*
X147668721Y-87775175D01*
X147773466Y-87670430D01*
X147855763Y-87547264D01*
X147912450Y-87410408D01*
X147941349Y-87265124D01*
X147941349Y-87116992D01*
X147912450Y-86971708D01*
X147855763Y-86834852D01*
X147773466Y-86711686D01*
X147668721Y-86606941D01*
X147545555Y-86524644D01*
X147408699Y-86467957D01*
X147263415Y-86439058D01*
X147115283Y-86439058D01*
X146969999Y-86467957D01*
X146833143Y-86524644D01*
X146709977Y-86606941D01*
X146605232Y-86711686D01*
X146586943Y-86739058D01*
X145643751Y-86739058D01*
X144552001Y-85638574D01*
X144552001Y-84810204D01*
X144554188Y-84787999D01*
X144545461Y-84699391D01*
X144519615Y-84614189D01*
X144506338Y-84589350D01*
X144477644Y-84535666D01*
X144421160Y-84466840D01*
X144403907Y-84452681D01*
X144098931Y-84147705D01*
X144123102Y-84089350D01*
X144152001Y-83944066D01*
X144152001Y-83795934D01*
X144123102Y-83650650D01*
X144066415Y-83513794D01*
X143984118Y-83390628D01*
X143879373Y-83285883D01*
X143756207Y-83203586D01*
X143619351Y-83146899D01*
X143474067Y-83118000D01*
X143325935Y-83118000D01*
X143180651Y-83146899D01*
X143043795Y-83203586D01*
X142920629Y-83285883D01*
X142815884Y-83390628D01*
X142733587Y-83513794D01*
X142676900Y-83650650D01*
X142648001Y-83795934D01*
X142648001Y-83944066D01*
X142676900Y-84089350D01*
X142707294Y-84162729D01*
X142599390Y-84184192D01*
X142380639Y-84274801D01*
X142183770Y-84406346D01*
X142016346Y-84573770D01*
X141884801Y-84770639D01*
X141794192Y-84989390D01*
X141748000Y-85221613D01*
X141748000Y-85458387D01*
X141794192Y-85690610D01*
X141884801Y-85909361D01*
X142016346Y-86106230D01*
X142183770Y-86273654D01*
X142380639Y-86405199D01*
X142599390Y-86495808D01*
X142831613Y-86542000D01*
X143068387Y-86542000D01*
X143300610Y-86495808D01*
X143338661Y-86480047D01*
X146308382Y-89473526D01*
X146325552Y-89494448D01*
X146346606Y-89511727D01*
X149589819Y-92725277D01*
X149605552Y-92744448D01*
X149626599Y-92761721D01*
X149627455Y-92762569D01*
X149646521Y-92778070D01*
X149685798Y-92810304D01*
X149686876Y-92810880D01*
X149687824Y-92811651D01*
X149732648Y-92835345D01*
X149777350Y-92859239D01*
X149778519Y-92859594D01*
X149779600Y-92860165D01*
X149828177Y-92874657D01*
X149876690Y-92889374D01*
X149877907Y-92889494D01*
X149879077Y-92889843D01*
X149929499Y-92894575D01*
X149954119Y-92897000D01*
X149955336Y-92897000D01*
X149982432Y-92899543D01*
X150007091Y-92897000D01*
X155700949Y-92897000D01*
X155700948Y-94372067D01*
X155698399Y-94397948D01*
X155700948Y-94423828D01*
X155708574Y-94501257D01*
X155738709Y-94600597D01*
X155787644Y-94692150D01*
X155853500Y-94772396D01*
X155873614Y-94788903D01*
X156948000Y-95863290D01*
X156948000Y-95944066D01*
X156976899Y-96089350D01*
X157033586Y-96226206D01*
X157115883Y-96349372D01*
X157173000Y-96406489D01*
X157173001Y-98083510D01*
X157115883Y-98140628D01*
X157033586Y-98263794D01*
X156976899Y-98400650D01*
X156948000Y-98545934D01*
X156948000Y-98563476D01*
X153766348Y-95381825D01*
X153766348Y-94470551D01*
X153768535Y-94448346D01*
X153759808Y-94359738D01*
X153733962Y-94274536D01*
X153725206Y-94258155D01*
X153691991Y-94196013D01*
X153635507Y-94127187D01*
X153618253Y-94113027D01*
X153285671Y-93780446D01*
X153271507Y-93763187D01*
X153202681Y-93706703D01*
X153124158Y-93664732D01*
X153038955Y-93638886D01*
X152972553Y-93632346D01*
X152950348Y-93630159D01*
X152928143Y-93632346D01*
X152300551Y-93632346D01*
X152278346Y-93630159D01*
X152189738Y-93638886D01*
X152104536Y-93664732D01*
X152026013Y-93706703D01*
X151957187Y-93763187D01*
X151943027Y-93780441D01*
X149468785Y-96254684D01*
X149448091Y-96150650D01*
X149391404Y-96013794D01*
X149309107Y-95890628D01*
X149204362Y-95785883D01*
X149081196Y-95703586D01*
X148944340Y-95646899D01*
X148799056Y-95618000D01*
X148650924Y-95618000D01*
X148505640Y-95646899D01*
X148368784Y-95703586D01*
X148245618Y-95785883D01*
X148140873Y-95890628D01*
X148058576Y-96013794D01*
X148001889Y-96150650D01*
X147972990Y-96295934D01*
X147972990Y-96444066D01*
X147973547Y-96446864D01*
X146879271Y-97541140D01*
X146861080Y-97556069D01*
X146801472Y-97628701D01*
X146783521Y-97662285D01*
X146757178Y-97711568D01*
X146729903Y-97801483D01*
X146720694Y-97894990D01*
X146723001Y-97918415D01*
X146723001Y-98527710D01*
X144088261Y-95892972D01*
X144105808Y-95850610D01*
X144152000Y-95618387D01*
X144152000Y-95381613D01*
X144105808Y-95149390D01*
X144015199Y-94930639D01*
X143883654Y-94733770D01*
X143716230Y-94566346D01*
X143519361Y-94434801D01*
X143378011Y-94376252D01*
X143581252Y-94304157D01*
X143831355Y-94155178D01*
X144047588Y-93960269D01*
X144221641Y-93726920D01*
X144346825Y-93464099D01*
X144391476Y-93316890D01*
X144270155Y-93087000D01*
X143077000Y-93087000D01*
X143077000Y-93107000D01*
X142823000Y-93107000D01*
X142823000Y-93087000D01*
X142803000Y-93087000D01*
X142803000Y-92833000D01*
X142823000Y-92833000D01*
X142823000Y-92813000D01*
X143077000Y-92813000D01*
X143077000Y-92833000D01*
X144270155Y-92833000D01*
X144289716Y-92795934D01*
X147661797Y-92795934D01*
X147661797Y-92944066D01*
X147690696Y-93089350D01*
X147747383Y-93226206D01*
X147829680Y-93349372D01*
X147934425Y-93454117D01*
X147936798Y-93455702D01*
X147936798Y-93607220D01*
X147943701Y-93677305D01*
X147970976Y-93767220D01*
X148015269Y-93850086D01*
X148074877Y-93922718D01*
X148147509Y-93982326D01*
X148230375Y-94026619D01*
X148320290Y-94053894D01*
X148413797Y-94063104D01*
X148507305Y-94053894D01*
X148597220Y-94026619D01*
X148680086Y-93982326D01*
X148752718Y-93922718D01*
X148812326Y-93850086D01*
X148856619Y-93767220D01*
X148883894Y-93677305D01*
X148890797Y-93607220D01*
X148890797Y-93455702D01*
X148893169Y-93454117D01*
X148997914Y-93349372D01*
X149080211Y-93226206D01*
X149136898Y-93089350D01*
X149165797Y-92944066D01*
X149165797Y-92795934D01*
X149136898Y-92650650D01*
X149080211Y-92513794D01*
X148997914Y-92390628D01*
X148893169Y-92285883D01*
X148770003Y-92203586D01*
X148633147Y-92146899D01*
X148487863Y-92118000D01*
X148339731Y-92118000D01*
X148194447Y-92146899D01*
X148057591Y-92203586D01*
X147934425Y-92285883D01*
X147829680Y-92390628D01*
X147747383Y-92513794D01*
X147690696Y-92650650D01*
X147661797Y-92795934D01*
X144289716Y-92795934D01*
X144391476Y-92603110D01*
X144346825Y-92455901D01*
X144221641Y-92193080D01*
X144047588Y-91959731D01*
X143831355Y-91764822D01*
X143581252Y-91615843D01*
X143378011Y-91543748D01*
X143519361Y-91485199D01*
X143716230Y-91353654D01*
X143883654Y-91186230D01*
X144015199Y-90989361D01*
X144105808Y-90770610D01*
X144152000Y-90538387D01*
X144152000Y-90370000D01*
X145670451Y-90370000D01*
X145680626Y-90473310D01*
X145710761Y-90572650D01*
X145759696Y-90664202D01*
X145825552Y-90744448D01*
X145905798Y-90810304D01*
X145997350Y-90859239D01*
X146096690Y-90889374D01*
X146174119Y-90897000D01*
X146475881Y-90897000D01*
X146553310Y-90889374D01*
X146652650Y-90859239D01*
X146744202Y-90810304D01*
X146824448Y-90744448D01*
X146890304Y-90664202D01*
X146939239Y-90572650D01*
X146969374Y-90473310D01*
X146979549Y-90370000D01*
X146969374Y-90266690D01*
X146939239Y-90167350D01*
X146890304Y-90075798D01*
X146824448Y-89995552D01*
X146744202Y-89929696D01*
X146652650Y-89880761D01*
X146553310Y-89850626D01*
X146475881Y-89843000D01*
X146174119Y-89843000D01*
X146096690Y-89850626D01*
X145997350Y-89880761D01*
X145905798Y-89929696D01*
X145825552Y-89995552D01*
X145759696Y-90075798D01*
X145710761Y-90167350D01*
X145680626Y-90266690D01*
X145670451Y-90370000D01*
X144152000Y-90370000D01*
X144152000Y-90301613D01*
X144105808Y-90069390D01*
X144015199Y-89850639D01*
X143883654Y-89653770D01*
X143716230Y-89486346D01*
X143519361Y-89354801D01*
X143300610Y-89264192D01*
X143068387Y-89218000D01*
X142831613Y-89218000D01*
X142599390Y-89264192D01*
X142380639Y-89354801D01*
X142183770Y-89486346D01*
X142016346Y-89653770D01*
X141884801Y-89850639D01*
X141794192Y-90069390D01*
X141748000Y-90301613D01*
X141748000Y-90538387D01*
X141794192Y-90770610D01*
X141832449Y-90862971D01*
X141327000Y-91368421D01*
X141327000Y-87761613D01*
X141748000Y-87761613D01*
X141748000Y-87998387D01*
X141794192Y-88230610D01*
X141884801Y-88449361D01*
X142016346Y-88646230D01*
X142183770Y-88813654D01*
X142380639Y-88945199D01*
X142599390Y-89035808D01*
X142831613Y-89082000D01*
X143068387Y-89082000D01*
X143300610Y-89035808D01*
X143519361Y-88945199D01*
X143716230Y-88813654D01*
X143883654Y-88646230D01*
X144015199Y-88449361D01*
X144105808Y-88230610D01*
X144152000Y-87998387D01*
X144152000Y-87761613D01*
X144105808Y-87529390D01*
X144015199Y-87310639D01*
X143883654Y-87113770D01*
X143716230Y-86946346D01*
X143519361Y-86814801D01*
X143300610Y-86724192D01*
X143068387Y-86678000D01*
X142831613Y-86678000D01*
X142599390Y-86724192D01*
X142380639Y-86814801D01*
X142183770Y-86946346D01*
X142016346Y-87113770D01*
X141884801Y-87310639D01*
X141794192Y-87529390D01*
X141748000Y-87761613D01*
X141327000Y-87761613D01*
X141327000Y-79315622D01*
X144293000Y-79315622D01*
X144293000Y-80924379D01*
X144309018Y-81087010D01*
X144372318Y-81295680D01*
X144475111Y-81487992D01*
X144613447Y-81656554D01*
X144782009Y-81794890D01*
X144974321Y-81897683D01*
X145182991Y-81960982D01*
X145400000Y-81982356D01*
X145617010Y-81960982D01*
X145825680Y-81897683D01*
X146017992Y-81794890D01*
X146186554Y-81656554D01*
X146324890Y-81487992D01*
X146427683Y-81295680D01*
X146490982Y-81087010D01*
X146507000Y-80924379D01*
X146507000Y-80247000D01*
X146550000Y-80247000D01*
X146550000Y-80997000D01*
X146601485Y-81265735D01*
X146704408Y-81519262D01*
X146854814Y-81747839D01*
X147046923Y-81942681D01*
X147273353Y-82096300D01*
X147525402Y-82202793D01*
X147598029Y-82217277D01*
X147813000Y-82094683D01*
X147813000Y-80247000D01*
X148067000Y-80247000D01*
X148067000Y-82094683D01*
X148281971Y-82217277D01*
X148354598Y-82202793D01*
X148606647Y-82096300D01*
X148833077Y-81942681D01*
X149025186Y-81747839D01*
X149175592Y-81519262D01*
X149278515Y-81265735D01*
X149306122Y-81121633D01*
X151040472Y-81121633D01*
X151102965Y-81357950D01*
X151345678Y-81471350D01*
X151605849Y-81535219D01*
X151873482Y-81547104D01*
X152138291Y-81506548D01*
X152390100Y-81415109D01*
X152497035Y-81357950D01*
X152559528Y-81121633D01*
X156040472Y-81121633D01*
X156102965Y-81357950D01*
X156345678Y-81471350D01*
X156605849Y-81535219D01*
X156873482Y-81547104D01*
X157138291Y-81506548D01*
X157390100Y-81415109D01*
X157497035Y-81357950D01*
X157559528Y-81121633D01*
X156800000Y-80362105D01*
X156040472Y-81121633D01*
X152559528Y-81121633D01*
X151800000Y-80362105D01*
X151040472Y-81121633D01*
X149306122Y-81121633D01*
X149330000Y-80997000D01*
X149330000Y-80255982D01*
X150435396Y-80255982D01*
X150475952Y-80520791D01*
X150567391Y-80772600D01*
X150624550Y-80879535D01*
X150860867Y-80942028D01*
X151620395Y-80182500D01*
X151979605Y-80182500D01*
X152739133Y-80942028D01*
X152975450Y-80879535D01*
X153088850Y-80636822D01*
X153152719Y-80376651D01*
X153158077Y-80255982D01*
X155435396Y-80255982D01*
X155475952Y-80520791D01*
X155567391Y-80772600D01*
X155624550Y-80879535D01*
X155860867Y-80942028D01*
X156620395Y-80182500D01*
X156979605Y-80182500D01*
X157739133Y-80942028D01*
X157975450Y-80879535D01*
X158088850Y-80636822D01*
X158152719Y-80376651D01*
X158164604Y-80109018D01*
X158124048Y-79844209D01*
X158032609Y-79592400D01*
X157975450Y-79485465D01*
X157739133Y-79422972D01*
X156979605Y-80182500D01*
X156620395Y-80182500D01*
X155860867Y-79422972D01*
X155624550Y-79485465D01*
X155511150Y-79728178D01*
X155447281Y-79988349D01*
X155435396Y-80255982D01*
X153158077Y-80255982D01*
X153164604Y-80109018D01*
X153124048Y-79844209D01*
X153032609Y-79592400D01*
X152975450Y-79485465D01*
X152739133Y-79422972D01*
X151979605Y-80182500D01*
X151620395Y-80182500D01*
X150860867Y-79422972D01*
X150624550Y-79485465D01*
X150511150Y-79728178D01*
X150447281Y-79988349D01*
X150435396Y-80255982D01*
X149330000Y-80255982D01*
X149330000Y-80247000D01*
X148067000Y-80247000D01*
X147813000Y-80247000D01*
X146550000Y-80247000D01*
X146507000Y-80247000D01*
X146507000Y-79315621D01*
X146499848Y-79243000D01*
X146550000Y-79243000D01*
X146550000Y-79993000D01*
X147813000Y-79993000D01*
X147813000Y-78145317D01*
X148067000Y-78145317D01*
X148067000Y-79993000D01*
X149330000Y-79993000D01*
X149330000Y-79243000D01*
X149278515Y-78974265D01*
X149175592Y-78720738D01*
X149025186Y-78492161D01*
X148833077Y-78297319D01*
X148606647Y-78143700D01*
X148354598Y-78037207D01*
X148281971Y-78022723D01*
X148067000Y-78145317D01*
X147813000Y-78145317D01*
X147598029Y-78022723D01*
X147525402Y-78037207D01*
X147273353Y-78143700D01*
X147046923Y-78297319D01*
X146854814Y-78492161D01*
X146704408Y-78720738D01*
X146601485Y-78974265D01*
X146550000Y-79243000D01*
X146499848Y-79243000D01*
X146490982Y-79152990D01*
X146427683Y-78944320D01*
X146324890Y-78752008D01*
X146186554Y-78583446D01*
X146017992Y-78445110D01*
X145825679Y-78342317D01*
X145617009Y-78279018D01*
X145400000Y-78257644D01*
X145182990Y-78279018D01*
X144974320Y-78342317D01*
X144782008Y-78445110D01*
X144613446Y-78583446D01*
X144475110Y-78752008D01*
X144372317Y-78944321D01*
X144309018Y-79152991D01*
X144293000Y-79315622D01*
X141327000Y-79315622D01*
X141327000Y-77609500D01*
X149565000Y-77609500D01*
X149565000Y-77959500D01*
X149613507Y-78197996D01*
X149707610Y-78422446D01*
X149843693Y-78624225D01*
X150016526Y-78795578D01*
X150219467Y-78929921D01*
X150444718Y-79022091D01*
X150482391Y-79025962D01*
X150673000Y-78901231D01*
X150673000Y-77609500D01*
X150927000Y-77609500D01*
X150927000Y-78901231D01*
X151100862Y-79015003D01*
X151040472Y-79243367D01*
X151800000Y-80002895D01*
X152559528Y-79243367D01*
X156040472Y-79243367D01*
X156800000Y-80002895D01*
X157559528Y-79243367D01*
X157499138Y-79015003D01*
X157673000Y-78901231D01*
X157673000Y-77609500D01*
X157927000Y-77609500D01*
X157927000Y-78901231D01*
X158117609Y-79025962D01*
X158155282Y-79022091D01*
X158380533Y-78929921D01*
X158583474Y-78795578D01*
X158756307Y-78624225D01*
X158892390Y-78422446D01*
X158986493Y-78197996D01*
X159035000Y-77959500D01*
X159035000Y-77609500D01*
X157927000Y-77609500D01*
X157673000Y-77609500D01*
X156565000Y-77609500D01*
X156565000Y-77959500D01*
X156613507Y-78197996D01*
X156707610Y-78422446D01*
X156843693Y-78624225D01*
X157016526Y-78795578D01*
X157111836Y-78858671D01*
X156994151Y-78829781D01*
X156726518Y-78817896D01*
X156461709Y-78858452D01*
X156209900Y-78949891D01*
X156102965Y-79007050D01*
X156040472Y-79243367D01*
X152559528Y-79243367D01*
X152497035Y-79007050D01*
X152254322Y-78893650D01*
X151994151Y-78829781D01*
X151726518Y-78817896D01*
X151496558Y-78853115D01*
X151583474Y-78795578D01*
X151756307Y-78624225D01*
X151892390Y-78422446D01*
X151986493Y-78197996D01*
X152035000Y-77959500D01*
X152035000Y-77609500D01*
X150927000Y-77609500D01*
X150673000Y-77609500D01*
X149565000Y-77609500D01*
X141327000Y-77609500D01*
X141327000Y-76399980D01*
X141554374Y-75945232D01*
X141752606Y-75747000D01*
X149397394Y-75747000D01*
X149917748Y-76267354D01*
X149843693Y-76340775D01*
X149707610Y-76542554D01*
X149613507Y-76767004D01*
X149565000Y-77005500D01*
X149565000Y-77355500D01*
X150673000Y-77355500D01*
X150673000Y-77335500D01*
X150927000Y-77335500D01*
X150927000Y-77355500D01*
X152035000Y-77355500D01*
X152035000Y-77005500D01*
X151986493Y-76767004D01*
X151925699Y-76622000D01*
X156674301Y-76622000D01*
X156613507Y-76767004D01*
X156565000Y-77005500D01*
X156565000Y-77355500D01*
X157673000Y-77355500D01*
X157673000Y-77335500D01*
X157927000Y-77335500D01*
X157927000Y-77355500D01*
X159035000Y-77355500D01*
X159035000Y-77005500D01*
X158986493Y-76767004D01*
X158892390Y-76542554D01*
X158756307Y-76340775D01*
X158670852Y-76256052D01*
X159143647Y-75605959D01*
X159227606Y-75522000D01*
X165980342Y-75522000D01*
X166193471Y-75542898D01*
M02*
